<?xml version="1.0" encoding="UTF-8" standalone="no"?>
<svg
   xmlns:dc="http://purl.org/dc/elements/1.1/"
   xmlns:cc="http://creativecommons.org/ns#"
   xmlns:rdf="http://www.w3.org/1999/02/22-rdf-syntax-ns#"
   xmlns:svg="http://www.w3.org/2000/svg"
   xmlns="http://www.w3.org/2000/svg"
   xmlns:sodipodi="http://sodipodi.sourceforge.net/DTD/sodipodi-0.dtd"
   xmlns:inkscape="http://www.inkscape.org/namespaces/inkscape"
   enable-background="new 0 0 512 512"
   height="512px"
   id="Layer_1"
   version="1.1"
   viewBox="0 0 512 512"
   width="512px"
   xml:space="preserve"
   inkscape:version="0.91 r13725"
   sodipodi:docname="embeddedlist.svg"><metadata
     id="metadata23"><rdf:RDF><cc:Work
         rdf:about=""><dc:format>image/svg+xml</dc:format><dc:type
           rdf:resource="http://purl.org/dc/dcmitype/StillImage" /><dc:title></dc:title></cc:Work></rdf:RDF></metadata><defs
     id="defs21" /><sodipodi:namedview
     pagecolor="#ffffff"
     bordercolor="#666666"
     borderopacity="1"
     objecttolerance="10"
     gridtolerance="10"
     guidetolerance="10"
     inkscape:pageopacity="0"
     inkscape:pageshadow="2"
     inkscape:window-width="701"
     inkscape:window-height="841"
     id="namedview19"
     showgrid="false"
     inkscape:zoom="0.4609375"
     inkscape:cx="256"
     inkscape:cy="256"
     inkscape:window-x="0"
     inkscape:window-y="0"
     inkscape:window-maximized="0"
     inkscape:current-layer="Layer_1" /><path
     inkscape:connector-curvature="0"
     id="path13"
     d="M 480,0 32,0 C 14.312,0 0,14.312 0,32 l 0,448 c 0,17.688 14.312,32 32,32 l 448,0 c 17.688,0 32,-14.312 32,-32 L 512,32 C 512,14.312 497.688,0 480,0 Z m -32,448 -384,0 0,-384 384,0 0,384 z" /><path
     inkscape:connector-curvature="0"
     id="path7"
     d="m 409.68532,328.08585 -305.20115,0 c -5.603639,0 -10.176089,4.8845 -10.176089,10.86804 l 0,46.41652 c 0,5.73931 4.57245,10.43388 10.176089,10.43388 l 305.20115,0 c 5.61719,0 10.17608,-4.69457 10.17608,-10.44745 l 0,-46.40295 c 0,-5.98354 -4.55889,-10.86806 -10.17608,-10.86806 z m 0,-108.54491 -305.20115,0 c -5.603639,0 -10.176089,4.88452 -10.176089,10.86804 l 0,46.41652 c 0,5.75288 4.57245,10.43388 10.176089,10.43388 l 305.20115,0 c 5.61719,0 10.17608,-4.681 10.17608,-10.43388 l 0,-46.41652 c 0,-5.98352 -4.55889,-10.86804 -10.17608,-10.86804 z m 0,-108.54491 -305.20115,0 c -5.603639,0 -10.176089,4.88452 -10.176089,10.86806 l 0,46.40294 c 0,5.73932 4.57245,10.43388 10.176089,10.43388 l 305.20115,0 c 5.61719,0 10.17608,-4.69456 10.17608,-10.43388 l 0,-46.40294 c 0,-5.98354 -4.55889,-10.86806 -10.17608,-10.86806 z"
     style="fill:#607d8b;fill-opacity:1" /></svg>