<?xml version="1.0" encoding="utf-8" standalone="no"?>
<svg xmlns:oryx="http://www.b3mn.org/oryx" xmlns:dc="http://purl.org/dc/elements/1.1/" xmlns:cc="http://creativecommons.org/ns#" xmlns:rdf="http://www.w3.org/1999/02/22-rdf-syntax-ns#" xmlns:svg="http://www.w3.org/2000/svg" xmlns="http://www.w3.org/2000/svg" width="102" height="82" version="1.0" id="svg2">
  <oryx:magnets>
    <oryx:magnet oryx:cx="1" oryx:cy="20" oryx:anchors="left" />
    <oryx:magnet oryx:cx="1" oryx:cy="40" oryx:anchors="left" />
    <oryx:magnet oryx:cx="1" oryx:cy="60" oryx:anchors="left" />
    <oryx:magnet oryx:cx="25" oryx:cy="79" oryx:anchors="bottom" />
    <oryx:magnet oryx:cx="50" oryx:cy="79" oryx:anchors="bottom" />
    <oryx:magnet oryx:cx="75" oryx:cy="79" oryx:anchors="bottom" />
    <oryx:magnet oryx:cx="99" oryx:cy="20" oryx:anchors="right" />
    <oryx:magnet oryx:cx="99" oryx:cy="40" oryx:anchors="right" />
    <oryx:magnet oryx:cx="99" oryx:cy="60" oryx:anchors="right" />
    <oryx:magnet oryx:cx="25" oryx:cy="1" oryx:anchors="top" />
    <oryx:magnet oryx:cx="50" oryx:cy="1" oryx:anchors="top" />
    <oryx:magnet oryx:cx="75" oryx:cy="1" oryx:anchors="top" />
    <oryx:magnet oryx:cx="50" oryx:cy="40" oryx:default="yes" />
  </oryx:magnets>
  <g pointer-events="fill" oryx:minimumSize="50 40" id="g6">
    <defs>
      <radialGradient id="background">
        <stop id="fill_el" />
      </radialGradient>
    </defs>
    <rect id="text_frame" oryx:anchors="bottom top right left" x="1" y="1" width="94" height="79" rx="3" ry="3" stroke="none" stroke-width="0" fill="none" />
    <rect id="bg_frame" oryx:resize="vertical horizontal" x="0" y="0" width="100" height="80" rx="3" ry="3" stroke="black" stroke-width="1" fill="url(#background)" />
    <text font-size="12" id="text_name" x="50" y="40" oryx:align="middle center" oryx:fittoelem="text_frame" stroke="black" />
    <g id="parallel">
      <path oryx:anchors="bottom" fill="none" stroke="black" d="M46 70 v8 M50 70 v8 M54 70 v8" stroke-width="2" id="path25" />
    </g>
    <g id="sequential">
      <path oryx:anchors="bottom" fill="none" stroke="#000000" stroke-width="2" d="M46,76h10M46,72h10 M46,68h10" id="path28" />
    </g>
    <g id="compensation">
      <path oryx:anchors="bottom" fill="none" stroke="black" d="M 62 74 L 66 70 L 66 78 L 62 74 L 62 70 L 58 74 L 62 78 L 62 74" stroke-width="1" id="path31" />
    </g>
    <path d="m 6.2615911,11.684929 c -0.0222,0.0834 -0.0414,0.23578 0.098,0.21904 0.179855,-0.0218 0.456067,-0.45249 0.615391,-0.56737 0.121143,-0.0871 0.287098,-0.0392 0.425355,-0.071 0.248715,-0.0576 0.460555,-0.21033 0.636525,-0.38449 0.02043,0.57238 -0.07382,1.13774 -0.06699,1.70811 0.0087,0.73684 0.147702,1.44688 0.197941,2.17702 0.02143,0.31382 -0.04488,0.62832 -0.02746,0.93779 0.0134,0.23679 -0.01574,0.54358 0.04488,0.77032 0.09981,0.37512 0.220046,0.62933 0.220046,1.03827 0,0.35335 -0.08172,0.73483 -0.06364,1.07176 0.01105,0.20397 0.102822,0.39957 0.124592,0.60287 0.02177,0.20263 -0.0633,0.54324 0.17684,0.64506 0.224065,0.0951 1.076784,0.18455 0.944154,-0.20933 -0.08005,-0.23813 -0.369757,-0.28234 -0.484302,-0.50305 -0.139328,-0.26962 -0.0345,-0.69698 -0.396216,-0.80349 l -0.08775,-1.54065 0.118228,-0.66985 0.01675,-0.87081 0.374446,-1.44018 0.348657,-1.07176 h 0.06699 c 0.05627,0.6454 0.176841,1.28813 0.130956,1.94257 -0.02378,0.33693 -0.273634,0.67755 -0.243826,1.00477 0.02211,0.23947 0.220046,0.44344 0.29373,0.66985 0.221385,0.67957 0.4853059,1.39932 0.7874079,2.04305 0.128612,0.27363 0.368418,0.57104 0.42636,0.8708 0.02545,0.13096 -0.09378,0.36842 0.03215,0.46823 0.07703,0.061 0.223395,0.0325 0.314829,0.0348 0.215692,0.005 0.919704,0.15708 1.009464,-0.13799 0.06632,-0.2177 -0.329566,-0.43574 -0.473584,-0.5322 -0.583104,-0.39085 -0.922383,-0.89391 -1.175921,-1.54099 -0.200286,-0.51076 -0.392198,-1.2563 -0.328897,-1.80859 0.0901,-0.78808 0.4488,-1.5296 0.600521,-2.31098 0.463871,0.38047 1.38592,0.61659 1.976057,0.70334 0,0.45583 0.01072,1.0175 0.289376,1.40635 0.13397,0.18655 0.417316,0.25655 0.510425,0.46956 0.04521,0.10383 -0.0047,0.22541 0.01708,0.33459 0.06598,0.33091 0.187222,0.66784 0.213682,1.00478 0.02679,0.33727 -0.169472,0.66884 -0.273299,0.97128 -0.13598,0.39555 -0.153061,0.83564 -0.184209,1.23922 -0.01005,0.12861 -0.106841,0.27498 -0.08909,0.39856 0.03282,0.2311 0.570042,0.14 0.721763,0.10383 -0.003,0.14435 -0.08072,0.36373 6.75e-4,0.49335 0.126937,0.20162 0.69296,0.17617 0.903628,0.1765 0.145357,3.3e-4 0.546262,0.11153 0.613917,-0.076 0.03852,-0.1065 -0.06933,-0.18956 -0.124257,-0.26459 -0.209328,-0.28602 -0.486981,-0.32789 -0.715065,-0.57071 -0.301097,-0.32086 -0.313155,-0.95588 -0.340953,-1.36616 -0.02479,-0.36138 -0.07201,-0.86478 0.06866,-1.20506 0.07435,-0.17985 0.253539,-0.27598 0.31282,-0.46956 0.09043,-0.29574 -0.01708,-0.631 0.153731,-0.90263 0.272964,-0.43406 0.808174,-0.43239 0.834968,-1.03994 h 0.03349 c 0.351001,0.95722 1.598931,0.64574 2.125768,0.0301 0.652434,-0.76262 0.911666,-1.73055 0.887887,-2.70954 -0.01239,-0.51679 0.01273,-1.02487 0.06196,-1.54065 0.02746,-0.28904 -0.03081,-0.44947 0.139664,-0.7033504 h 0.03349 c 0.322868,0.3027804 0.965924,0.0419 0.857408,-0.4354 -0.121578,-0.53354 -0.775016,-0.71808 -1.225825,-0.8708 0.03651,-0.12895 0.09277,-0.26627 0.09579,-0.40175 0.007,-0.30866 -0.260907,-0.4431 -0.531191,-0.41122 -0.471574,0.0556 -0.949847,0.26362 -1.3397,0.5333 -0.368752,0.25488 -0.826595,0.74186 -0.863437,1.21746 -0.02009,0.25856 0.101148,0.5087504 0.05962,0.7703204 -0.60454,-0.6561104 -0.934441,-1.7476404 -1.064727,-2.6122404 -0.04622,-0.3072 0.204974,-0.64534 0.04455,-0.93428 -0.07234,-0.12995 -0.225739,-0.17312 -0.35301,-0.23012 -0.346983,-0.15524 -0.891906,-0.29326 -1.272716,-0.23515 -0.866116,0.13206 -0.60186,1.70483 -1.6063,1.41847 -0.462197,-0.13176 -0.241146,-0.68475 -0.356695,-0.98974 -0.191577,-0.5065 -0.753916,-0.41715 -1.151807,-0.4067 -0.137989,0.004 -0.26794,-0.0501 -0.4019099,0.007 -0.249854,0.10711 -0.393202,0.41567 -0.44679,0.66683 -0.115884,0.54355 -0.03617,1.08375 -0.273299,1.6048 -0.06263,0.13765 -0.192917,0.23813 -0.26727,0.3711 -0.372772,0.66951 -0.676884,1.2680204 -1.357284,1.7020804 -0.304045,0.19392 -0.624333,0.21134 -0.93779,0.3634 -0.222557,0.10818 -0.9045319,0.35502 -0.435402,0.64741 z" style="fill:#000000" id="path3" />
  </g>
</svg>
