<?xml version="1.0" encoding="UTF-8" standalone="no"?>
<!-- Created with Inkscape (http://www.inkscape.org/) -->

<svg
   xmlns:dc="http://purl.org/dc/elements/1.1/"
   xmlns:cc="http://creativecommons.org/ns#"
   xmlns:rdf="http://www.w3.org/1999/02/22-rdf-syntax-ns#"
   xmlns:svg="http://www.w3.org/2000/svg"
   xmlns="http://www.w3.org/2000/svg"
   xmlns:sodipodi="http://sodipodi.sourceforge.net/DTD/sodipodi-0.dtd"
   xmlns:inkscape="http://www.inkscape.org/namespaces/inkscape"
   width="120"
   height="120"
   id="svg2"
   version="1.1"
   inkscape:version="0.48.4 r9939"
   sodipodi:docname="logo.svg"
   inkscape:export-filename="/tmp/logo2.png"
   inkscape:export-xdpi="90"
   inkscape:export-ydpi="90">
  <defs
     id="defs4" />
  <sodipodi:namedview
     id="base"
     pagecolor="#ffffff"
     bordercolor="#666666"
     borderopacity="1.0"
     inkscape:pageopacity="0.0"
     inkscape:pageshadow="2"
     inkscape:zoom="2.1772996"
     inkscape:cx="-32.316188"
     inkscape:cy="60"
     inkscape:document-units="px"
     inkscape:current-layer="g3018"
     showgrid="false"
     fit-margin-top="0"
     fit-margin-left="0"
     fit-margin-right="0"
     fit-margin-bottom="0"
     showguides="true"
     inkscape:guide-bbox="true"
     inkscape:window-width="1491"
     inkscape:window-height="983"
     inkscape:window-x="155"
     inkscape:window-y="40"
     inkscape:window-maximized="0" />
  <metadata
     id="metadata7">
    <rdf:RDF>
      <cc:Work
         rdf:about="">
        <dc:format>image/svg+xml</dc:format>
        <dc:type
           rdf:resource="http://purl.org/dc/dcmitype/StillImage" />
        <dc:title />
      </cc:Work>
    </rdf:RDF>
  </metadata>
  <g
     inkscape:label="Ebene 1"
     inkscape:groupmode="layer"
     id="layer1"
     transform="translate(-130.93076,-807.01496)">
    <g
       id="g3051">
      <g
         id="g3018"
         transform="matrix(0.74124851,0,0,0.74124851,46.415044,224.5617)">
        <g
           id="g3257"
           transform="matrix(1.0380668,0,0,0.96223722,-593.92878,741.15819)"
           style="fill:#f2f2f2;fill-opacity:1">
          <g
             id="g3807"
             transform="matrix(0.20885535,0,0,0.20885535,666.56479,98.311738)">
            <g
               id="g4973"
               transform="translate(-382.95863,955.76672)">
              <g
                 transform="matrix(0.87946224,0,0,0.87946224,29.002643,-712.96743)"
                 id="g4949">
                <g
                   style="fill:#ffffff;fill-opacity:1;stroke:#241313;stroke-opacity:1"
                   id="g3804"
                   transform="translate(488.70094,-234.317)">
                  <path
                     sodipodi:nodetypes="ccccccccccccc"
                     style="fill:#ffffff;fill-opacity:1;fill-rule:evenodd;stroke:#241313;stroke-opacity:1"
                     inkscape:connector-curvature="0"
                     id="path3224"
                     d="m 733.4235,260.72 -5.90169,0.75542 -189.56229,22.99298 -7.83744,1.0387 1.79411,7.64859 c 17.84671,79.93249 -2.7856,160.85646 -13.59749,243.48012 l -1.0387,8.68729 8.54565,-0.75542 198.29678,-14.16405 5.90169,-0.28328 0.75542,-5.90169 c 10.05648,-84.32335 32.67175,-170.53524 4.43807,-257.88025 z" />
                </g>
              </g>
              <g
                 transform="translate(-168.61612,-1279.4942)"
                 id="g4962">
                <g
                   transform="translate(543.00104,311.39497)"
                   id="g4931">
                  <path
                     d="m 733.4235,260.72 -5.90169,0.75542 -189.56229,22.99298 -7.83744,1.0387 1.79411,7.64859 c 17.84671,79.93249 -2.7856,160.85646 -13.59749,243.48012 l -1.0387,8.68729 8.54565,-0.75542 198.29678,-14.16405 5.90169,-0.28328 0.75542,-5.90169 c 10.05648,-84.32335 32.67175,-170.53524 4.43807,-257.88025 L 733.4235,260.72 z m -10.29255,15.48603 c 23.4179,78.94101 -7.36531,156.60725 -17.56343,238.28664 l -168.22177,13.12536 c 10.62304,-76.20262 33.1911,-139.51595 17.84671,-218.07925 l 167.93849,-33.33275 z"
                     id="path4933"
                     inkscape:connector-curvature="0"
                     style="fill:#271010;fill-opacity:1;fill-rule:evenodd" />
                </g>
                <path
                   style="fill:#f2f2f2;fill-opacity:1;stroke:#000000;stroke-width:4.7213521px"
                   inkscape:connector-curvature="0"
                   id="path4935"
                   d="m 1126.8993,642.41589 110.1964,-21.71822" />
                <path
                   style="fill:#f2f2f2;fill-opacity:1;stroke:#000000;stroke-width:4.7213521px"
                   inkscape:connector-curvature="0"
                   id="path4937"
                   d="M 1130.2515,667.43907 1235.396,654.07764" />
                <path
                   style="fill:#f2f2f2;fill-opacity:1;stroke:#000000;stroke-width:4.7213521px"
                   inkscape:connector-curvature="0"
                   id="path4939"
                   d="m 1129.4016,690.80976 108.0718,-9.20664" />
                <path
                   style="fill:#f2f2f2;fill-opacity:1;stroke:#000000;stroke-width:4.7213521px"
                   inkscape:connector-curvature="0"
                   id="path4941"
                   d="M 1121.0448,723.7648 1235.396,713.75553" />
                <path
                   style="fill:#f2f2f2;fill-opacity:1;stroke:#000000;stroke-width:4.7213521px"
                   inkscape:connector-curvature="0"
                   id="path4943"
                   d="m 1117.7399,745.90794 108.4967,-3.77708" />
                <path
                   style="fill:#f2f2f2;fill-opacity:1;stroke:#000000;stroke-width:4.7213521px"
                   inkscape:connector-curvature="0"
                   id="path4945"
                   d="m 1113.9628,777.58821 105.9944,-12.08666" />
                <path
                   style="fill:#f2f2f2;fill-opacity:1;stroke:#000000;stroke-width:4.7213521px"
                   inkscape:connector-curvature="0"
                   id="path4947"
                   d="m 1108.5333,801.80875 107.694,-8.3568" />
              </g>
            </g>
          </g>
        </g>
        <g
           transform="matrix(0.41220954,0,0,0.38209811,82.559757,547.0214)"
           id="layer1-9"
           style="fill:#ffffff;stroke:#000000;stroke-linecap:round;stroke-linejoin:round">
          <path
             d="m 174.72,639.58 c -29.2,0 -52.91,13.35 -52.91,29.79 v 119.12 c 0,16.44 23.71,29.78 52.91,29.78 29.2,0 52.91,-13.34 52.91,-29.78 V 669.37 h -0.04 c 0,-16.44 -23.67,-29.79 -52.87,-29.79 z"
             id="rect3196"
             inkscape:connector-curvature="0"
             style="stroke-width:10" />
          <path
             transform="matrix(1.6639,0,0,1.6225,-131.61,-463.2)"
             d="m 214.8,698.03 a 30.686,17.717 0 1 1 -61.37,0 30.686,17.717 0 1 1 61.37,0 z"
             id="path2527"
             inkscape:connector-curvature="0"
             style="stroke-width:2.9375" />
        </g>
        <g
           transform="matrix(0.24880179,0,0,0.2306271,180.95901,634.58612)"
           id="layer1-90">
          <g
             id="text11467">
            <g
               id="g7364">
              <g
                 id="g7357">
                <path
                   d="m 154.9,698.17 -5.6658,20.776 c -3.5718,0.7411 -7.0365,1.6451 -10.451,2.7702 l -15.235,-15.236 -24.302,14.103 5.5404,20.776 c -2.699,2.4087 -5.2679,4.986 -7.6812,7.6809 l -20.776,-5.5403 -14.103,24.302 15.235,15.236 c -1.1434,3.4661 -2.1481,7.0756 -2.896,10.703 v 0.12575 l -20.65,5.2885 v 28.079 l 20.65,5.2885 c 0.7708,3.7885 1.8203,7.4676 3.0221,11.081 l -15.362,14.984 14.103,24.302 20.524,-5.7921 c 2.518,2.8375 5.2255,5.5354 8.0588,8.0586 l -5.6666,20.65 24.302,14.103 14.984,-15.362 c 3.5749,1.1893 7.2078,2.2546 10.955,3.022 l 5.4143,20.65 h 28.08 l 5.2878,-20.65 c 3.7629,-0.7706 7.492,-1.826 11.081,-3.022 l 14.858,15.362 24.427,-14.103 -5.7915,-20.65 c 2.8142,-2.506 5.5541,-5.1165 8.0584,-7.9327 l 20.65,5.6662 13.977,-24.302 -15.236,-14.858 c 1.1936,-3.5722 2.2505,-7.2102 3.0221,-10.955 l 20.65,-5.5403 v -28.079 l -20.65,-5.5403 c -0.74394,-3.5858 -1.7651,-7.149 -2.896,-10.577 l 15.11,-15.236 -13.977,-24.302 -20.902,5.6662 c -2.4171,-2.7048 -4.9756,-5.2637 -7.6804,-7.6809 l 5.6658,-20.902 -24.427,-14.103 -15.11,15.236 c -3.3802,-1.1152 -6.9178,-1.9052 -10.451,-2.6442 l -5.6658,-20.902 h -28.08 z"
                   id="path7367"
                   inkscape:connector-curvature="0" />
                <g
                   transform="matrix(3.2361,0,0,3.2361,7655.9,1739.2)"
                   id="g7373"
                   style="fill:#ffffff">
                  <path
                     d="m -2317.6,-319.28 -2.3986,9.0029 -6.6044,-6.6044 -7.0267,4.0538 2.4323,9.0198 -9.0198,-2.4154 -4.0539,7.0098 6.7058,6.672 -9.1212,2.3478 v 8.1077 l 9.2056,2.3479 -6.7902,6.6551 4.0539,7.0098 9.1549,-2.5843 -2.5674,9.1887 7.0267,4.0538 6.6382,-6.8071 2.3648,9.2225 h 8.1077 l 2.3478,-9.2225 6.6551,6.8071 7.0267,-4.0538 -2.5675,-9.155 9.155,2.5506 4.0538,-7.0098 -6.7226,-6.5537 9.138,-2.4492 v -8.1077 l -9.0367,-2.3985 6.6213,-6.6213 -4.0538,-7.0098 -9.003,2.4323 2.4155,-9.0367 -7.0267,-4.0538 -6.5875,6.6213 -2.4154,-9.0198 h -8.1077 z"
                     id="path7375"
                     inkscape:connector-curvature="0" />
                  <path
                     d="m 1183.5,128.11 c 0,28.305 -22.945,51.25 -51.25,51.25 -28.305,0 -51.25,-22.945 -51.25,-51.25 0,-28.305 22.945,-51.25 51.25,-51.25 28.305,0 51.25,22.945 51.25,51.25 z"
                     transform="matrix(0.5413,0,0,0.5413,-2926.4,-355.49)"
                     id="path7377"
                     inkscape:connector-curvature="0" />
                </g>
                <path
                   d="m 168.94,772.2 c -22.648,0 -40.998,18.349 -40.998,40.998 0,22.648 18.349,40.998 40.998,40.998 22.648,0 40.998,-18.349 40.998,-40.998 0,-22.648 -18.349,-40.998 -40.998,-40.998 z m 0,8.3942 c 17.974,0 32.603,14.629 32.603,32.603 0,17.974 -14.629,32.482 -32.603,32.482 -17.974,0 -32.603,-14.507 -32.603,-32.482 0,-17.974 14.629,-32.603 32.603,-32.603 z"
                   id="path7463"
                   inkscape:connector-curvature="0"
                   style="opacity:0.95999995;stroke:#464646;stroke-width:0.20503999" />
              </g>
              <g
                 id="g7347">
                <path
                   d="m 279.04,865.3 -4.1339,15.244 c -5.6409,1.3373 -10.847,3.6059 -15.631,6.5884 l -13.564,-8.0094 -11.497,11.497 8.0089,13.564 c -3.0256,4.8529 -5.2578,10.156 -6.5884,15.89 l -15.244,3.8755 v 16.277 l 15.244,3.8755 c 1.3244,5.6639 3.6072,10.957 6.5884,15.76 l -8.0089,13.564 11.497,11.627 13.564,-8.0094 c 4.8475,3.0192 10.165,5.1311 15.89,6.4592 l 3.8754,15.373 h 16.278 l 3.8754,-15.373 c 5.5953,-1.3083 10.873,-3.4026 15.631,-6.33 l 13.823,7.8802 11.497,-11.627 -8.0097,-13.564 c 2.9322,-4.7292 5.1301,-9.9376 6.4596,-15.502 l 15.373,-4.1339 v -16.277 l -15.373,-4.1339 c -1.3263,-5.5957 -3.5126,-10.749 -6.4596,-15.502 l 8.0097,-13.694 -11.497,-11.497 -13.693,7.8802 c -4.7206,-2.9215 -9.9508,-5.1336 -15.502,-6.4592 l -4.1339,-15.244 h -16.278 z"
                   id="path7369"
                   inkscape:connector-curvature="0" />
                <path
                   d="m 1183.5,128.11 a 51.25,51.25 0 1 1 -102.5,0 51.25,51.25 0 1 1 102.5,0 z"
                   transform="matrix(0.95792,0,0,0.95792,-797.43,809.36)"
                   id="path7387"
                   inkscape:connector-curvature="0"
                   style="fill:#ffffff" />
                <g
                   transform="matrix(1.7402,0,0,1.7402,-2299.7,636.92)"
                   id="g7389"
                   style="fill:#ffffff">
                  <path
                     d="m 1482.1,205.17 -9.2801,-36.151 9.2801,-34.97 h 8.7001 l 9.2801,34.675 -9.2801,36.446 H 1482.1 z"
                     id="path7391"
                     inkscape:connector-curvature="0" />
                  <path
                     d="m 1450.9,165.26 36.151,-9.2801 34.97,9.2801 v 8.7001 l -34.675,9.2801 -36.446,-9.2801 V 165.26 z"
                     id="path7393"
                     inkscape:connector-curvature="0" />
                  <path
                     d="m 1458.3,191.68 19,-32.125 31.29,-18.166 6.152,6.1519 -17.957,31.081 -32.333,19.209 -6.152,-6.1519 z"
                     id="path7395"
                     inkscape:connector-curvature="0" />
                  <path
                     d="m 1464.4,141.39 32.124,19 18.166,31.29 -6.152,6.1519 -31.081,-17.957 -19.209,-32.333 6.152,-6.1519 z"
                     id="path7397"
                     inkscape:connector-curvature="0" />
                </g>
                <path
                   d="m 287.18,907.57 c -13.548,0 -24.574,11.026 -24.574,24.574 0,13.548 11.026,24.453 24.574,24.453 13.548,0 24.574,-10.905 24.574,-24.453 0,-13.548 -11.026,-24.574 -24.574,-24.574 z m 0,4.3796 c 11.148,0 20.195,9.0468 20.195,20.195 0,11.1482 -9.0468,20.195 -20.195,20.195 -11.1482,0 -20.195,-9.0468 -20.195,-20.195 0,-11.1482 9.0468,-20.195 20.195,-20.195 z"
                   id="path7465"
                   inkscape:connector-curvature="0"
                   style="opacity:0.95999995;stroke:#464646;stroke-width:0.12265" />
              </g>
            </g>
          </g>
        </g>
        <text
           xml:space="preserve"
           style="font-size:32px;font-style:italic;font-variant:normal;font-weight:bold;font-stretch:normal;text-align:start;line-height:125%;letter-spacing:0px;word-spacing:0px;writing-mode:lr-tb;text-anchor:start;fill:#ffcc00;fill-opacity:1;stroke:none;font-family:Arial;-inkscape-font-specification:Arial Bold Italic"
           x="138.30954"
           y="883.70801"
           id="text3334"
           sodipodi:linespacing="125%"><tspan
             sodipodi:role="line"
             id="tspan3336"
             x="138.30954"
             y="883.70801">simpl4</tspan></text>
        <g
           id="g3800"
           transform="translate(167.91414,203.85148)">
          <path
             transform="matrix(1.2605214,0,0,1.2468977,104.10153,778.24426)"
             d="m -63.38126,-52.461338 c 0,11.541341 -10.795506,20.897446 -24.112438,20.897446 -13.316932,0 -24.112442,-9.356105 -24.112442,-20.897446 0,-11.541341 10.79551,-20.897446 24.112442,-20.897446 13.316932,0 24.112438,9.356105 24.112438,20.897446 z"
             sodipodi:ry="20.897446"
             sodipodi:rx="24.112438"
             sodipodi:cy="-52.461338"
             sodipodi:cx="-87.493698"
             id="path3798"
             style="fill:#ffffff;fill-opacity:1;fill-rule:evenodd;stroke:#201212;stroke-width:0.69999999;stroke-linecap:round;stroke-linejoin:round;stroke-miterlimit:4;stroke-opacity:1;stroke-dasharray:none;stroke-dashoffset:0"
             sodipodi:type="arc" />
          <g
             transform="matrix(0.26087583,0,0,0.26087583,-65.66966,411.23042)"
             id="g3822">
            <g
               id="g3819">
              <path
                 style="fill:#170c0c;fill-opacity:1"
                 d="m 232.12549,1045.8669 c -32.0975,-1.4613 -62.88379,8.7437 -86.67648,28.7437 -23.82878,20.0211 -37.80096,47.4225 -39.37681,77.1558 -1.57646,29.7542 9.43242,58.293 31.03139,80.3602 21.56425,22.0658 51.12354,35.0187 83.22104,36.4794 66.27008,3.0171 122.78731,-44.4898 126.04127,-105.8994 3.25365,-61.411 -47.97033,-113.8234 -114.24041,-116.8397 z m 95.06852,115.9672 c -0.55185,10.4104 -2.94962,20.3318 -6.8249,29.5158 -8.06978,-0.9743 -16.03371,-2.2102 -23.89043,-3.7285 8.06002,-18.1394 10.8137,-38.0238 7.75913,-57.9891 -2.91082,-18.991 -10.88948,-36.2105 -22.44088,-50.6228 28.83903,17.6586 47.21247,48.5669 45.39753,82.8246 z m -77.15521,-78.1162 c -19.77035,21.0469 -36.64311,44.4397 -50.03336,69.7267 -11.32555,-6.0847 -22.22887,-12.7786 -32.6659,-20.0155 8.51413,-14.9991 21.27855,-27.6119 37.3288,-36.5492 14.26404,-7.9652 29.81342,-12.2299 45.37046,-13.1616 z m -58.01789,85.9969 c -8.53924,18.7248 -15.23226,38.3862 -19.81697,58.7822 -0.70522,-0.991 -1.39842,-2.0017 -2.05688,-3.0219 -13.923,-21.4512 -17.98699,-46.6601 -11.47441,-70.9198 0.36088,-1.3998 0.78792,-2.7328 1.21798,-4.1292 10.30244,6.9645 21.02291,13.4052 32.13058,19.2879 z m 7.34667,68.3885 c -3.27396,0.4363 -6.53784,0.6816 -9.78443,0.821 4.19902,-21.1487 10.7552,-41.4764 19.42901,-60.781 18.66816,8.6449 38.27762,15.7768 58.68854,21.2212 -0.56689,0.7192 -1.13528,1.4922 -1.72652,2.2321 -16.23521,20.014 -39.87152,32.9628 -66.6069,36.5059 z m 17.55694,-76.1786 c 13.47701,-25.6355 30.73817,-49.2024 51.10398,-70.2006 8.81215,11.678 14.88867,25.3399 17.19305,40.385 2.71309,17.7366 -0.0301,35.3728 -7.71567,51.3155 -21.13118,-5.3068 -41.40075,-12.5549 -60.58166,-21.4999 z m -58.58629,-74.1075 c 20.00643,-16.8292 45.86968,-25.4054 72.84566,-24.1775 6.09651,0.2774 12.04957,1.0914 17.79753,2.3116 -18.59749,1.0913 -37.17693,6.1659 -54.21059,15.6667 -18.02759,10.0511 -32.57416,23.999 -42.65031,40.5243 -4.67644,-3.663 -9.24416,-7.4273 -13.71218,-11.3366 5.22858,-8.4936 11.9001,-16.2507 19.92974,-22.9871 z m -33.08241,64.8231 c 0.4511,-8.5088 2.14063,-16.7692 4.93597,-24.65 4.43134,3.7372 8.95996,7.372 13.59685,10.9163 -1.44653,3.6822 -2.70481,7.4691 -3.76039,11.3504 -5.15326,19.2098 -4.70245,38.8866 1.024,57.4316 -11.26766,-16.2828 -16.83968,-35.3421 -15.79613,-55.0481 z m 98.64877,98.2515 c 22.75365,-7.1208 42.6864,-20.3974 57.42394,-38.6065 2.16319,-2.6701 4.19286,-5.4207 6.07757,-8.2527 7.80679,1.6013 15.68335,2.9609 23.6769,4.0916 -18.54034,26.4592 -50.97918,43.5629 -87.17871,42.767 z"
                 id="path244"
                 inkscape:connector-curvature="0" />
            </g>
          </g>
        </g>
      </g>
    </g>
  </g>
</svg>
