<?xml version="1.0" encoding="UTF-8" standalone="no"?>
<!-- Created with Inkscape (http://www.inkscape.org/) -->

<svg
   xmlns:dc="http://purl.org/dc/elements/1.1/"
   xmlns:cc="http://creativecommons.org/ns#"
   xmlns:rdf="http://www.w3.org/1999/02/22-rdf-syntax-ns#"
   xmlns:svg="http://www.w3.org/2000/svg"
   xmlns="http://www.w3.org/2000/svg"
   xmlns:sodipodi="http://sodipodi.sourceforge.net/DTD/sodipodi-0.dtd"
   xmlns:inkscape="http://www.inkscape.org/namespaces/inkscape"
   width="96.900024"
   height="118.23869"
   id="svg2"
   version="1.1"
   inkscape:version="0.48.4 r9939"
   sodipodi:docname="simpl4_logo.svg">
  <defs
     id="defs4" />
  <sodipodi:namedview
     id="base"
     pagecolor="#ffffff"
     bordercolor="#666666"
     borderopacity="1.0"
     inkscape:pageopacity="0.0"
     inkscape:pageshadow="2"
     inkscape:zoom="1"
     inkscape:cx="48.450014"
     inkscape:cy="59.13568"
     inkscape:document-units="px"
     inkscape:current-layer="g3051"
     showgrid="false"
     fit-margin-top="0"
     fit-margin-left="0"
     fit-margin-right="0"
     fit-margin-bottom="0"
     showguides="true"
     inkscape:guide-bbox="true"
     inkscape:window-width="1491"
     inkscape:window-height="983"
     inkscape:window-x="155"
     inkscape:window-y="73"
     inkscape:window-maximized="0" />
  <metadata
     id="metadata7">
    <rdf:RDF>
      <cc:Work
         rdf:about="">
        <dc:format>image/svg+xml</dc:format>
        <dc:type
           rdf:resource="http://purl.org/dc/dcmitype/StillImage" />
        <dc:title />
      </cc:Work>
    </rdf:RDF>
  </metadata>
  <g
     inkscape:label="Ebene 1"
     inkscape:groupmode="layer"
     id="layer1"
     transform="translate(-130.93076,-808.77627)">
    <g
       id="g3051">
      <g
         id="g3018"
         transform="matrix(0.74124851,0,0,0.74124851,46.415044,224.5617)">
        <g
           transform="matrix(0.41220954,0,0,0.38209811,70.41808,545.67233)"
           id="layer1-9"
           style="fill:#ffffff;stroke:#000000;stroke-linecap:round;stroke-linejoin:round">
          <path
             d="m 174.72,639.58 c -29.2,0 -52.91,13.35 -52.91,29.79 v 119.12 c 0,16.44 23.71,29.78 52.91,29.78 29.2,0 52.91,-13.34 52.91,-29.78 V 669.37 h -0.04 c 0,-16.44 -23.67,-29.79 -52.87,-29.79 z"
             id="rect3196"
             inkscape:connector-curvature="0"
             style="stroke-width:10" />
          <path
             transform="matrix(1.6639,0,0,1.6225,-131.61,-463.2)"
             d="m 214.8,698.03 a 30.686,17.717 0 1 1 -61.37,0 30.686,17.717 0 1 1 61.37,0 z"
             id="path2527"
             inkscape:connector-curvature="0"
             style="stroke-width:2.9375" />
        </g>
        <g
           transform="matrix(0.23081726,0,0,0.21395632,163.0416,640.82886)"
           id="layer1-90">
          <g
             id="text11467">
            <g
               id="g7364">
              <g
                 id="g7357">
                <path
                   d="m 154.9,698.17 -5.6658,20.776 c -3.5718,0.7411 -7.0365,1.6451 -10.451,2.7702 l -15.235,-15.236 -24.302,14.103 5.5404,20.776 c -2.699,2.4087 -5.2679,4.986 -7.6812,7.6809 l -20.776,-5.5403 -14.103,24.302 15.235,15.236 c -1.1434,3.4661 -2.1481,7.0756 -2.896,10.703 v 0.12575 l -20.65,5.2885 v 28.079 l 20.65,5.2885 c 0.7708,3.7885 1.8203,7.4676 3.0221,11.081 l -15.362,14.984 14.103,24.302 20.524,-5.7921 c 2.518,2.8375 5.2255,5.5354 8.0588,8.0586 l -5.6666,20.65 24.302,14.103 14.984,-15.362 c 3.5749,1.1893 7.2078,2.2546 10.955,3.022 l 5.4143,20.65 h 28.08 l 5.2878,-20.65 c 3.7629,-0.7706 7.492,-1.826 11.081,-3.022 l 14.858,15.362 24.427,-14.103 -5.7915,-20.65 c 2.8142,-2.506 5.5541,-5.1165 8.0584,-7.9327 l 20.65,5.6662 13.977,-24.302 -15.236,-14.858 c 1.1936,-3.5722 2.2505,-7.2102 3.0221,-10.955 l 20.65,-5.5403 v -28.079 l -20.65,-5.5403 c -0.74394,-3.5858 -1.7651,-7.149 -2.896,-10.577 l 15.11,-15.236 -13.977,-24.302 -20.902,5.6662 c -2.4171,-2.7048 -4.9756,-5.2637 -7.6804,-7.6809 l 5.6658,-20.902 -24.427,-14.103 -15.11,15.236 c -3.3802,-1.1152 -6.9178,-1.9052 -10.451,-2.6442 l -5.6658,-20.902 h -28.08 z"
                   id="path7367"
                   inkscape:connector-curvature="0" />
                <g
                   transform="matrix(3.2361,0,0,3.2361,7655.9,1739.2)"
                   id="g7373"
                   style="fill:#ffffff">
                  <path
                     d="m -2317.6,-319.28 -2.3986,9.0029 -6.6044,-6.6044 -7.0267,4.0538 2.4323,9.0198 -9.0198,-2.4154 -4.0539,7.0098 6.7058,6.672 -9.1212,2.3478 v 8.1077 l 9.2056,2.3479 -6.7902,6.6551 4.0539,7.0098 9.1549,-2.5843 -2.5674,9.1887 7.0267,4.0538 6.6382,-6.8071 2.3648,9.2225 h 8.1077 l 2.3478,-9.2225 6.6551,6.8071 7.0267,-4.0538 -2.5675,-9.155 9.155,2.5506 4.0538,-7.0098 -6.7226,-6.5537 9.138,-2.4492 v -8.1077 l -9.0367,-2.3985 6.6213,-6.6213 -4.0538,-7.0098 -9.003,2.4323 2.4155,-9.0367 -7.0267,-4.0538 -6.5875,6.6213 -2.4154,-9.0198 h -8.1077 z"
                     id="path7375"
                     inkscape:connector-curvature="0" />
                  <path
                     d="m 1183.5,128.11 c 0,28.305 -22.945,51.25 -51.25,51.25 -28.305,0 -51.25,-22.945 -51.25,-51.25 0,-28.305 22.945,-51.25 51.25,-51.25 28.305,0 51.25,22.945 51.25,51.25 z"
                     transform="matrix(0.5413,0,0,0.5413,-2926.4,-355.49)"
                     id="path7377"
                     inkscape:connector-curvature="0" />
                </g>
                <path
                   d="m 168.94,772.2 c -22.648,0 -40.998,18.349 -40.998,40.998 0,22.648 18.349,40.998 40.998,40.998 22.648,0 40.998,-18.349 40.998,-40.998 0,-22.648 -18.349,-40.998 -40.998,-40.998 z m 0,8.3942 c 17.974,0 32.603,14.629 32.603,32.603 0,17.974 -14.629,32.482 -32.603,32.482 -17.974,0 -32.603,-14.507 -32.603,-32.482 0,-17.974 14.629,-32.603 32.603,-32.603 z"
                   id="path7463"
                   inkscape:connector-curvature="0"
                   style="opacity:0.95999995;stroke:#464646;stroke-width:0.20503999" />
              </g>
              <g
                 id="g7347">
                <path
                   d="m 279.04,865.3 -4.1339,15.244 c -5.6409,1.3373 -10.847,3.6059 -15.631,6.5884 l -13.564,-8.0094 -11.497,11.497 8.0089,13.564 c -3.0256,4.8529 -5.2578,10.156 -6.5884,15.89 l -15.244,3.8755 v 16.277 l 15.244,3.8755 c 1.3244,5.6639 3.6072,10.957 6.5884,15.76 l -8.0089,13.564 11.497,11.627 13.564,-8.0094 c 4.8475,3.0192 10.165,5.1311 15.89,6.4592 l 3.8754,15.373 h 16.278 l 3.8754,-15.373 c 5.5953,-1.3083 10.873,-3.4026 15.631,-6.33 l 13.823,7.8802 11.497,-11.627 -8.0097,-13.564 c 2.9322,-4.7292 5.1301,-9.9376 6.4596,-15.502 l 15.373,-4.1339 v -16.277 l -15.373,-4.1339 c -1.3263,-5.5957 -3.5126,-10.749 -6.4596,-15.502 l 8.0097,-13.694 -11.497,-11.497 -13.693,7.8802 c -4.7206,-2.9215 -9.9508,-5.1336 -15.502,-6.4592 l -4.1339,-15.244 h -16.278 z"
                   id="path7369"
                   inkscape:connector-curvature="0" />
                <path
                   d="m 1183.5,128.11 a 51.25,51.25 0 1 1 -102.5,0 51.25,51.25 0 1 1 102.5,0 z"
                   transform="matrix(0.95792,0,0,0.95792,-797.43,809.36)"
                   id="path7387"
                   inkscape:connector-curvature="0"
                   style="fill:#ffffff" />
                <g
                   transform="matrix(1.7402,0,0,1.7402,-2299.7,636.92)"
                   id="g7389"
                   style="fill:#ffffff">
                  <path
                     d="m 1482.1,205.17 -9.2801,-36.151 9.2801,-34.97 h 8.7001 l 9.2801,34.675 -9.2801,36.446 H 1482.1 z"
                     id="path7391"
                     inkscape:connector-curvature="0" />
                  <path
                     d="m 1450.9,165.26 36.151,-9.2801 34.97,9.2801 v 8.7001 l -34.675,9.2801 -36.446,-9.2801 V 165.26 z"
                     id="path7393"
                     inkscape:connector-curvature="0" />
                  <path
                     d="m 1458.3,191.68 19,-32.125 31.29,-18.166 6.152,6.1519 -17.957,31.081 -32.333,19.209 -6.152,-6.1519 z"
                     id="path7395"
                     inkscape:connector-curvature="0" />
                  <path
                     d="m 1464.4,141.39 32.124,19 18.166,31.29 -6.152,6.1519 -31.081,-17.957 -19.209,-32.333 6.152,-6.1519 z"
                     id="path7397"
                     inkscape:connector-curvature="0" />
                </g>
                <path
                   d="m 287.18,907.57 c -13.548,0 -24.574,11.026 -24.574,24.574 0,13.548 11.026,24.453 24.574,24.453 13.548,0 24.574,-10.905 24.574,-24.453 0,-13.548 -11.026,-24.574 -24.574,-24.574 z m 0,4.3796 c 11.148,0 20.195,9.0468 20.195,20.195 0,11.1482 -9.0468,20.195 -20.195,20.195 -11.1482,0 -20.195,-9.0468 -20.195,-20.195 0,-11.1482 9.0468,-20.195 20.195,-20.195 z"
                   id="path7465"
                   inkscape:connector-curvature="0"
                   style="opacity:0.95999995;stroke:#464646;stroke-width:0.12265" />
              </g>
            </g>
          </g>
        </g>
        <g
           transform="matrix(0.36665068,0,0,0.33986728,181.67567,633.43437)"
           id="layer1-8">
          <path
             d="m -100.6,764.66 c -21.346,-1.0484 -41.82,6.2731 -57.643,20.622 -15.847,14.364 -25.139,34.023 -26.187,55.355 -1.0484,21.347 6.2729,41.822 20.637,57.654 14.341,15.831 33.999,25.124 55.345,26.172 44.072,2.1646 81.658,-31.919 83.822,-75.977 2.1638,-44.059 -31.902,-81.662 -75.974,-83.826 z m 63.224,83.2 c -0.367,7.4689 -1.9616,14.587 -4.5388,21.176 -5.3667,-0.699 -10.663,-1.5857 -15.888,-2.675 5.3602,-13.014 7.1915,-27.28 5.1601,-41.604 -1.9358,-13.625 -7.2419,-25.979 -14.924,-36.319 19.179,12.669 31.398,34.844 30.191,59.422 z m -51.311,-56.044 c -13.148,15.1 -24.369,31.883 -33.274,50.025 -7.5319,-4.3654 -14.783,-9.1679 -21.724,-14.36 5.6622,-10.761 14.151,-19.81 24.825,-26.222 9.4861,-5.7146 19.827,-8.7743 30.173,-9.4427 z m -38.584,61.698 c -5.6789,13.434 -10.13,27.54 -13.179,42.173 -0.469,-0.711 -0.93,-1.4361 -1.3679,-2.1681 -9.2593,-15.39 -11.962,-33.476 -7.6309,-50.881 0.24,-1.0043 0.524,-1.9606 0.81,-2.9625 6.8515,4.9967 13.981,9.6175 21.368,13.838 z m 4.8858,49.065 c -2.1773,0.313 -4.3479,0.489 -6.507,0.589 2.7925,-15.173 7.1526,-29.757 12.921,-43.607 12.415,6.2022 25.456,11.319 39.03,15.225 -0.377,0.516 -0.755,1.0706 -1.1482,1.6014 -10.797,14.359 -26.516,23.649 -44.296,26.191 z m 11.676,-54.654 c 8.9627,-18.392 20.442,-35.3 33.986,-50.365 5.8604,8.3783 9.9015,18.18 11.434,28.974 1.8043,12.725 -0.02,25.378 -5.1312,36.816 -14.053,-3.8073 -27.533,-9.0074 -40.289,-15.425 z m -38.962,-53.168 c 13.305,-12.074 30.505,-18.227 48.445,-17.346 4.0544,0.199 8.0134,0.783 11.836,1.6584 -12.368,0.783 -24.724,4.4237 -36.052,11.24 -11.989,7.2111 -21.663,17.218 -28.364,29.074 -3.11,-2.628 -6.1477,-5.3287 -9.1191,-8.1334 3.4772,-6.0937 7.914,-11.659 13.254,-16.492 z m -22.001,46.507 c 0.3,-6.1046 1.4236,-12.031 3.2826,-17.685 2.947,2.6812 5.9587,5.289 9.0424,7.8318 -0.962,2.6418 -1.7988,5.3587 -2.5008,8.1433 -3.4271,13.782 -3.1273,27.899 0.681,41.204 -7.4934,-11.682 -11.199,-25.356 -10.505,-39.494 z m 65.605,70.49 c 15.132,-5.1088 28.388,-14.634 38.189,-27.698 1.4386,-1.9157 2.7884,-3.8891 4.0418,-5.9209 5.1918,1.1489 10.43,2.1243 15.746,2.9355 -12.33,18.983 -33.903,31.254 -57.977,30.683 z"
             id="path244"
             inkscape:connector-curvature="0" />
        </g>
        <g
           transform="matrix(0.54136469,0,0,0.50181863,-16.987694,727.1501)"
           id="layer1-91">
          <g
             transform="matrix(1.9175,0,0,1.9175,-607.19,-179.09)"
             id="g3257">
            <path
               d="m 563.06,260.72 -1.25,0.16 -40.15,4.87 -1.66,0.22 0.38,1.62 c 3.78,16.93 -0.59,34.07 -2.88,51.57 l -0.22,1.84 1.81,-0.16 42,-3 1.25,-0.06 0.16,-1.25 c 2.13,-17.86 6.92,-36.12 0.94,-54.62 l -0.38,-1.19 z m -2.18,3.28 c 4.96,16.72 -1.56,33.17 -3.72,50.47 l -35.63,2.78 c 2.25,-16.14 7.03,-29.55 3.78,-46.19 L 560.88,264 z"
               id="path3224"
               inkscape:connector-curvature="0"
               style="fill-rule:evenodd" />
            <path
               d="m 531.39,275.61 23.34,-4.6"
               id="path3237"
               inkscape:connector-curvature="0"
               style="fill:none;stroke:#000000;stroke-width:1px" />
            <path
               d="m 532.1,280.91 22.27,-2.83"
               id="path3243"
               inkscape:connector-curvature="0"
               style="fill:none;stroke:#000000;stroke-width:1px" />
            <path
               d="m 531.92,285.86 22.89,-1.95"
               id="path3247"
               inkscape:connector-curvature="0"
               style="fill:none;stroke:#000000;stroke-width:1px" />
            <path
               d="m 530.15,292.84 24.22,-2.12"
               id="path3249"
               inkscape:connector-curvature="0"
               style="fill:none;stroke:#000000;stroke-width:1px" />
            <path
               d="m 529.45,297.53 22.98,-0.8"
               id="path3251"
               inkscape:connector-curvature="0"
               style="fill:none;stroke:#000000;stroke-width:1px" />
            <path
               d="m 528.65,304.24 22.45,-2.56"
               id="path3253"
               inkscape:connector-curvature="0"
               style="fill:none;stroke:#000000;stroke-width:1px" />
            <path
               d="m 527.5,309.37 22.81,-1.77"
               id="path3255"
               inkscape:connector-curvature="0"
               style="fill:none;stroke:#000000;stroke-width:1px" />
          </g>
        </g>
        <text
           xml:space="preserve"
           style="font-size:32px;font-style:italic;font-variant:normal;font-weight:bold;font-stretch:normal;text-align:start;line-height:125%;letter-spacing:0px;word-spacing:0px;writing-mode:lr-tb;text-anchor:start;fill:#ffcc00;fill-opacity:1;stroke:none;font-family:Arial;-inkscape-font-specification:Arial Bold Italic"
           x="128.86601"
           y="885.05713"
           id="text3334"
           sodipodi:linespacing="125%"><tspan
             sodipodi:role="line"
             id="tspan3336"
             x="128.86601"
             y="885.05713">simpl4</tspan></text>
      </g>
    </g>
  </g>
</svg>
