<?xml version="1.0" encoding="utf-8" standalone="no"?>
<svg xmlns:inkscape="http://www.inkscape.org/namespaces/inkscape" xmlns="http://www.w3.org/2000/svg" xmlns:svg="http://www.w3.org/2000/svg" xmlns:oryx="http://www.b3mn.org/oryx" xmlns:xlink="http://www.w3.org/1999/xlink" width="82" height="62" version="1.0">
  <g pointer-events="fill" oryx:minimumSize="80 60">
    <defs>
      <radialGradient id="background">
        <stop id="fill_el" />
      </radialGradient>
    </defs>
    <rect id="text_frame" oryx:anchors="bottom top right left" x="1" y="1" width="78" height="58" rx="10" ry="10" stroke="none" stroke-width="2" fill="none" />
    <rect id="bg_frame" oryx:resize="vertical horizontal" x="0" y="0" width="80" height="60" rx="4" ry="4" stroke="black" stroke-width="1" fill="url(#background) #ffffcc" />
    <text id="text1" oryx:anchors="left top" oryx:align="center top" oryx:fittoelem="text_frame" font-weight="bold" font-family="Helvetica" font-size="11" x="40" y="40" fill="black">Splitter</text>
    <g transform="scale(0.8,0.8) translate(13,2)">
      <path style="fill:#ccffff;stroke:none" d="M 35.162685,43.740474 C 25.660474,43.733492 15.527326,41.072073 8.7718903,34.042794 4.7649945,29.967153 3.2148104,23.455192 5.9256427,18.25396 10.024673,10.347478 18.982219,6.5889411 27.323809,5.0623447 c 10.733005,-1.7358163 22.535603,-0.082937 31.4173,6.5132263 4.793583,3.561701 8.309221,9.757233 6.540217,15.81316 -1.891385,6.990681 -8.600496,11.433367 -15.049198,13.809194 -4.824745,1.714753 -9.947764,2.59025 -15.069443,2.542549 z" id="path1318" inkscape:connector-curvature="0" />
      <path style="fill:none;stroke:#000000;stroke-width:0.29332209;stroke-linejoin:round" d="M 35.162685,43.740474 C 25.660474,43.733492 15.527326,41.072073 8.7718903,34.042794 4.7649945,29.967153 3.2148104,23.455192 5.9256427,18.25396 10.024673,10.347478 18.982219,6.5889411 27.323809,5.0623447 c 10.733005,-1.7358163 22.535603,-0.082937 31.4173,6.5132263 4.793583,3.561701 8.309221,9.757233 6.540217,15.81316 -1.891385,6.990681 -8.600496,11.433367 -15.049198,13.809194 -4.824745,1.714753 -9.947764,2.59025 -15.069443,2.542549 z" id="path1320" inkscape:connector-curvature="0" />
      <path style="fill:#ffffff;stroke:none" d="m 44.572245,15.019952 c 2.908777,0 5.817555,0 8.726332,0 0,5.817555 0,11.635109 0,17.452664 -5.817554,0 -11.635109,0 -17.452663,0 0,-5.817555 0,-11.635109 0,-17.452664 2.908777,0 5.817554,0 8.726331,0 z" id="path1325" inkscape:connector-curvature="0" />
      <path style="fill:none;stroke:#000000;stroke-width:0.29332209;stroke-linejoin:round" d="m 44.572245,15.019952 c 2.908777,0 5.817555,0 8.726332,0 0,5.817555 0,11.635109 0,17.452664 -5.817554,0 -11.635109,0 -17.452663,0 0,-5.817555 0,-11.635109 0,-17.452664 2.908777,0 5.817554,0 8.726331,0 z" id="path1327" inkscape:connector-curvature="0" />
      <path style="fill:none;stroke:#808080;stroke-width:0.91663152;stroke-linejoin:round" d="m -0.96779072,24.429514 c 7.76081322,0 15.52162672,0 23.28243972,0" id="path1332" inkscape:connector-curvature="0" />
      <path style="fill:#808080;stroke:none" d="m 31.760876,24.087894 c -2.920999,1.46661 -5.841999,2.933221 -8.762998,4.399831 0,-2.920999 0,-5.841998 0,-8.762997 2.920999,1.454389 5.841999,2.908777 8.762998,4.363166 z" id="path1337" inkscape:connector-curvature="0" />
      <path style="fill:none;stroke:#808080;stroke-width:0.91663152;stroke-linejoin:round" d="m 31.760876,24.087894 c -2.920999,1.46661 -5.841999,2.933221 -8.762998,4.399831 0,-2.920999 0,-5.841998 0,-8.762997 2.920999,1.454389 5.841999,2.908777 8.762998,4.363166 z" id="path1339" inkscape:connector-curvature="0" />
    </g>
  </g>
</svg>
