<?xml version="1.0" encoding="utf-8" standalone="no"?>
<svg xmlns:inkscape="http://www.inkscape.org/namespaces/inkscape" xmlns="http://www.w3.org/2000/svg" xmlns:svg="http://www.w3.org/2000/svg" xmlns:oryx="http://www.b3mn.org/oryx" xmlns:xlink="http://www.w3.org/1999/xlink" width="82" height="62" version="1.0">
  <g pointer-events="fill" oryx:minimumSize="80 60">
    <defs>
      <radialGradient id="background">
        <stop id="fill_el" />
      </radialGradient>
    </defs>
    <rect id="text_frame" oryx:anchors="bottom top right left" x="1" y="1" width="78" height="58" rx="10" ry="10" stroke="none" stroke-width="2" fill="none" />
    <rect id="bg_frame" oryx:resize="vertical horizontal" x="0" y="0" width="80" height="60" rx="4" ry="4" stroke="black" stroke-width="1" fill="url(#background) #ffffcc" />
    <text id="text2" oryx:anchors="top" oryx:align="center top" oryx:fittoelem="text_frame" font-family="Helvetica" font-size="10" x="40" y="40" fill="black">Datamapper</text>
    <g transform="scale(0.8,0.8) translate(13,2)">
      <path d="M 67,28 L 58,28 58,19 67,19 67,28 Z" fill="#ffffff" />
      <path d="M 18,28 L 9,28 9,19 18,19 18,28 Z" fill="#ffffff" stroke="#0f0f0f" />
      <path d="M 18,14 L 9,14 9,6 18,6 18,14 Z" fill="#ffffff" stroke="#0f0f0f" />
      <path d="M 18,41 L 9,41 9,32 18,32 18,41 Z" fill="#ffffff" stroke="#0f0f0f" />
      <path d="M 67,14 L 58,14 58,6 67,6 67,14 Z" fill="#ffffff" stroke="#0f0f0f" />
      <path d="M 67,41 L 58,41 58,32 67,32 67,41 Z" fill="#ffffff" stroke="#0f0f0f" />
      <path stroke-opacity="0.3" d="M 15.252101,34.159664 58.563025,12.8487395" stroke-width="1.5" fill="none" stroke="#0f0f0f" />
    </g>
  </g>
</svg>
