<?xml version="1.0" encoding="utf-8" standalone="no"?>
<svg xmlns:inkscape="http://www.inkscape.org/namespaces/inkscape" xmlns="http://www.w3.org/2000/svg" xmlns:svg="http://www.w3.org/2000/svg" xmlns:oryx="http://www.b3mn.org/oryx" xmlns:xlink="http://www.w3.org/1999/xlink" width="82" height="62" version="1.0">
  <g pointer-events="fill" oryx:minimumSize="80 60">
    <defs>
      <radialGradient id="background">
        <stop id="fill_el" />
      </radialGradient>
    </defs>
    <rect id="text_frame" oryx:anchors="bottom top right left" x="1" y="1" width="78" height="58" rx="10" ry="10" stroke="none" stroke-width="2" fill="none" />
    <rect id="bg_frame" oryx:resize="vertical horizontal" x="0" y="0" width="80" height="60" rx="4" ry="4" stroke="black" stroke-width="1" fill="url(#background) #ffffcc" />
    <text id="text2" oryx:anchors="top" oryx:align="center top" oryx:fittoelem="text_frame" font-family="Helvetica" font-size="10" x="40" y="40" fill="black">EventBus</text>
    <g transform="scale(0.8,0.8) translate(5,2)">
      <defs>
        <marker id="arrow" viewBox="0 0 10 10" refX="1" refY="5" markerUnits="strokeWidth" orient="auto" markerWidth="8" markerHeight="14">
          <path d="M 0 0 L 10 5 L 0 10 z" />
        </marker>
        <marker id="end" refX="10" refY="5" markerUnits="userSpaceOnUse" markerWidth="10" markerHeight="10" orient="auto">
          <path id="arrowhead2" d="M 0 0 L 10 5 L 0 10 L 0 0" fill="black" stroke="black" />
        </marker>
      </defs>
      <g transform="scale(0.75,0.75) translate(-5,0)">
        <path fill="none" d="m13.67122,3.15625c15.74862,0.01 31.497272,-0.019 47.245879,0.0143c4.737648,0.61217 7.308609,6.38665 5.45636,10.57718c-1.147942,4.135 -1.577896,8.56312 -3.620228,12.38578c-2.076931,3.650229 -6.51025,3.307579 -10.092892,3.163469c-12.253071,-0.0389 -24.514978,0.10969 -36.762499,-0.082199c-4.013321,-0.711861 -5.800521,-5.027142 -6.39809,-8.619001c-0.7278,-3.48078 -1.98219,-6.896379 -2.24627,-10.447289c0.24249,-3.36017 2.83491,-6.87827 6.41774,-6.99223l0,-0.00001z" id="path4434" />
        <path fill="none" stroke="#000000" filter="url(#filter3820)" d="m12.880578,2.704858c16.341464,0.009858 32.682956,-0.019716 49.024417,0.014786c4.889256,0.62973 7.571514,6.557512 5.679195,10.883875c-1.159851,4.197252 -1.653404,8.649996 -3.592373,12.584503c-1.648106,3.127213 -5.272194,3.946766 -8.518055,3.562393c-13.426041,-0.047443 -26.860851,0.1145 -40.281315,-0.085661c-4.152245,-0.730556 -6.014675,-5.178978 -6.633516,-8.885923c-0.758175,-3.61158 -2.060404,-7.156254 -2.338388,-10.840174c0.251618,-3.476478 2.942069,-7.116266 6.660035,-7.233799z" id="path4436" />
        <path fill="#1a1a1a" d="m17.09886,10.27091c0.18899,3.78599 -6.02543,4.58473 -6.81601,0.85285c-0.80247,-2.89639 2.84756,-5.41748 5.26302,-3.64465c0.932711,0.59957 1.58127,1.667409 1.55299,2.7918z" id="path4442" />
        <path fill="#a0a0a0" filter="url(#filter4216)" d="m15.772635,11.096579c-1.194183,3.850717 -4.445685,-2.743784 -0.387341,-0.892425l0.286868,0.403482l0.100472,0.488942z" id="path4444" />
        <path fill="none" stroke="#ffffff" stroke-width="0.2" filter="url(#filter3968)" d="m17.098995,10.298876c0.179426,3.689522 -5.605002,4.651423 -6.635504,1.111898c-1.034081,-2.962308 2.639481,-5.79502 5.107016,-3.928672c0.916824,0.605447 1.555708,1.682204 1.528488,2.816773z" id="path4446" />
        <path fill="none" stroke="#000000" stroke-width="0.30274" filter="url(#filter4004)" d="m17.023424,10.275775c0.173223,3.684363 -5.560145,4.650464 -6.582988,1.111177c-1.026246,-2.958673 2.618896,-5.791992 5.065333,-3.925156c0.90814,0.605689 1.546188,1.679764 1.517654,2.813978z" id="path4448" />
        <path fill="#1a1a1a" d="m28.90143,10.18563c0.188999,3.78599 -6.025431,4.58474 -6.81601,0.85285c-0.802481,-2.896379 2.847559,-5.41747 5.26302,-3.64464c0.932711,0.59956 1.58127,1.6674 1.55299,2.79179z" id="path4452" />
        <path fill="#a0a0a0" filter="url(#filter4216-4)" d="m27.572716,11.013748c-1.194183,3.850717 -4.445686,-2.743784 -0.387342,-0.892425l0.286869,0.403483l0.100473,0.488941z" id="path4454" />
        <path fill="none" stroke="#ffffff" stroke-width="0.2" filter="url(#filter3968-7)" d="m28.901525,10.213606c0.179426,3.689522 -5.605003,4.651423 -6.635504,1.111898c-1.034082,-2.962309 2.639481,-5.79502 5.107016,-3.928672c0.916824,0.605447 1.555708,1.682204 1.528488,2.816773z" id="path4456" />
        <path fill="none" stroke="#000000" stroke-width="0.30274" filter="url(#filter4004-9)" d="m28.825994,10.190505c0.173223,3.684363 -5.560146,4.650464 -6.582989,1.111177c-1.026245,-2.958673 2.618896,-5.791992 5.065334,-3.925156c0.90814,0.60569 1.546186,1.679763 1.517654,2.813978z" id="path4458" />
        <path fill="#1a1a1a" d="m40.703941,10.27091c0.188988,3.78599 -6.02544,4.58473 -6.816021,0.85285c-0.802479,-2.89639 2.847569,-5.41748 5.263031,-3.64465c0.932709,0.59957 1.581268,1.667409 1.55299,2.7918z" id="path4462" />
        <path fill="#a0a0a0" filter="url(#filter4216)" d="m39.377705,11.096579c-1.194183,3.850717 -4.445686,-2.743784 -0.387341,-0.892425l0.286869,0.403482l0.100471,0.488942z" id="path4464" />
        <path fill="none" stroke="#ffffff" stroke-width="0.2" filter="url(#filter3968)" d="m40.704063,10.298876c0.179428,3.689522 -5.605,4.651423 -6.635502,1.111898c-1.034081,-2.962308 2.639481,-5.79502 5.107014,-3.928672c0.916824,0.605447 1.55571,1.682204 1.528488,2.816773z" id="path4466" />
        <path fill="none" stroke="#000000" stroke-width="0.30274" filter="url(#filter4004)" d="m40.628494,10.275775c0.173222,3.684363 -5.560146,4.650464 -6.582989,1.111177c-1.026245,-2.958673 2.618896,-5.791992 5.065334,-3.925156c0.908142,0.605689 1.546188,1.679764 1.517654,2.813978z" id="path4468" />
        <path fill="#1a1a1a" d="m52.50647,10.27091c0.188992,3.785999 -6.02544,4.58473 -6.816021,0.85285c-0.802479,-2.89639 2.847572,-5.41748 5.263031,-3.64465c0.932709,0.59957 1.581272,1.667409 1.55299,2.7918z" id="path4472" />
        <path fill="#a0a0a0" filter="url(#filter4216)" d="m51.180233,11.096579c-1.19418,3.850717 -4.445683,-2.743784 -0.387341,-0.892425l0.286869,0.403482l0.100471,0.488942z" id="path4474" />
        <path fill="none" stroke="#ffffff" stroke-width="0.2" filter="url(#filter3968)" d="m52.506603,10.298876c0.179428,3.689522 -5.605,4.651423 -6.635502,1.111898c-1.034081,-2.962308 2.639481,-5.79502 5.107018,-3.928672c0.916824,0.605447 1.555706,1.682204 1.528484,2.816773z" id="path4476" />
        <path fill="none" stroke="#000000" stroke-width="0.30274" filter="url(#filter4004)" d="m52.431034,10.275775c0.173222,3.684363 -5.560146,4.650464 -6.582989,1.111177c-1.026245,-2.958673 2.618896,-5.791992 5.065334,-3.925156c0.908142,0.605689 1.546188,1.679764 1.517654,2.813978z" id="path4478" />
        <path fill="#1a1a1a" d="m64.308998,10.27091c0.189003,3.785999 -6.025429,4.58473 -6.81601,0.85285c-0.802479,-2.89639 2.847561,-5.41748 5.26302,-3.64464c0.932713,0.59956 1.581272,1.667399 1.55299,2.79179z" id="path4482" />
        <path fill="#a0a0a0" filter="url(#filter4216)" d="m62.982777,11.096579c-1.194183,3.850717 -4.445686,-2.743784 -0.387344,-0.892425l0.286869,0.403482l0.100475,0.488942z" id="path4484" />
        <path fill="none" stroke="#ffffff" stroke-width="0.2" filter="url(#filter3968)" d="m64.309135,10.298876c0.179428,3.689522 -5.605003,4.651423 -6.635506,1.111898c-1.034081,-2.962308 2.639481,-5.79502 5.107018,-3.928672c0.916824,0.605447 1.55571,1.682204 1.528488,2.816773z" id="path4486" />
        <path fill="none" stroke="#000000" stroke-width="0.30274" filter="url(#filter4004)" d="m64.233566,10.275775c0.173218,3.684363 -5.560146,4.650464 -6.582989,1.111177c-1.026249,-2.958673 2.618896,-5.791992 5.065331,-3.925156c0.908142,0.605689 1.546192,1.679764 1.517658,2.813978z" id="path4488" />
        <path fill="#1a1a1a" d="m22.896601,22.69463c0.188999,3.786001 -6.02544,4.58474 -6.816021,0.85285c-0.80248,-2.896389 2.847561,-5.417459 5.26302,-3.64464c0.93272,0.59956 1.581282,1.6674 1.553001,2.79179z" id="path4492" />
        <path fill="#a0a0a0" filter="url(#filter4216)" d="m21.570375,23.520298c-1.194183,3.850718 -4.445686,-2.743784 -0.387341,-0.892424l0.286867,0.403482l0.100473,0.488941z" id="path4494" />
        <path fill="none" stroke="#ffffff" stroke-width="0.2" filter="url(#filter3968)" d="m22.896734,22.722595c0.179428,3.689524 -5.605001,4.651424 -6.635504,1.111898c-1.034081,-2.962307 2.639481,-5.795019 5.107018,-3.928671c0.916824,0.605446 1.555706,1.682203 1.528486,2.816772z" id="path4496" />
        <path fill="none" stroke="#000000" stroke-width="0.30274" filter="url(#filter4004)" d="m22.821163,22.699495c0.173223,3.684362 -5.560144,4.650463 -6.582987,1.111177c-1.026246,-2.958673 2.618896,-5.791992 5.065332,-3.925156c0.908142,0.605688 1.546188,1.679764 1.517654,2.813978z" id="path4498" />
        <path fill="#1a1a1a" d="m34.492069,22.60935c0.188999,3.78599 -6.025429,4.58474 -6.81601,0.85285c-0.802479,-2.896379 2.847561,-5.417471 5.26302,-3.64464c0.932713,0.59956 1.581272,1.6674 1.55299,2.79179z" id="path4502" />
        <path fill="#a0a0a0" filter="url(#filter4216-4)" d="m33.163364,23.437468c-1.194183,3.850718 -4.445684,-2.743784 -0.387341,-0.892424l0.286869,0.403482l0.100471,0.488941z" id="path4504" />
        <path fill="none" stroke="#ffffff" stroke-width="0.2" filter="url(#filter3968-7)" d="m34.492165,22.637325c0.179428,3.689524 -5.605001,4.651424 -6.635504,1.111898c-1.034081,-2.962307 2.639481,-5.795019 5.107016,-3.928671c0.916824,0.605446 1.55571,1.682203 1.528488,2.816772z" id="path4506" />
        <path fill="none" stroke="#000000" stroke-width="0.30274" filter="url(#filter4004-9)" d="m34.416634,22.614235c0.173225,3.684362 -5.560144,4.650463 -6.582987,1.111177c-1.026247,-2.958672 2.618896,-5.791992 5.065332,-3.925156c0.908142,0.60569 1.546188,1.679764 1.517654,2.813978z" id="path4508" />
        <path fill="#1a1a1a" d="m46.087551,22.69463c0.189011,3.78599 -6.02544,4.58474 -6.81601,0.85285c-0.802483,-2.896389 2.847549,-5.417469 5.263008,-3.64464c0.93272,0.59956 1.58128,1.6674 1.553001,2.79179z" id="path4512" />
        <path fill="#a0a0a0" filter="url(#filter4216)" d="m44.761314,23.520298c-1.194183,3.850718 -4.445686,-2.743784 -0.387341,-0.892424l0.286869,0.403482l0.100471,0.488941z" id="path4514" />
        <path fill="none" stroke="#ffffff" stroke-width="0.2" filter="url(#filter3968)" d="m46.087673,22.722595c0.179428,3.689524 -5.605,4.651424 -6.635502,1.111898c-1.034081,-2.962307 2.639481,-5.795019 5.107018,-3.928671c0.916824,0.605446 1.555706,1.682203 1.528484,2.816772z" id="path4516" />
        <path fill="none" stroke="#000000" stroke-width="0.30274" filter="url(#filter4004)" d="m46.012104,22.699495c0.173222,3.684362 -5.560146,4.650463 -6.582989,1.111177c-1.026245,-2.958673 2.618896,-5.791992 5.065334,-3.925156c0.908142,0.605688 1.546188,1.679764 1.517654,2.813978z" id="path4518" />
        <path fill="#1a1a1a" d="m57.683022,22.69463c0.189007,3.78599 -6.02544,4.58474 -6.816013,0.85285c-0.802467,-2.896379 2.847553,-5.417469 5.263012,-3.64464c0.93272,0.59956 1.58128,1.6674 1.553001,2.79179z" id="path4522" />
        <path fill="#a0a0a0" filter="url(#filter4216)" d="m56.356785,23.520298c-1.194183,3.850718 -4.445686,-2.743784 -0.387341,-0.892424l0.286869,0.403482l0.100471,0.488941z" id="path4524" />
        <path fill="none" stroke="#ffffff" stroke-width="0.2" filter="url(#filter3968)" d="m57.683155,22.722595c0.179428,3.689524 -5.605003,4.651424 -6.635506,1.111898c-1.034081,-2.962307 2.639481,-5.795019 5.107018,-3.928671c0.916824,0.605446 1.555706,1.682203 1.528488,2.816772z" id="path4526" />
        <path fill="none" stroke="#000000" stroke-width="0.30274" filter="url(#filter4004)" d="m57.607582,22.699495c0.173225,3.684362 -5.560143,4.650463 -6.582985,1.111177c-1.026245,-2.958673 2.618896,-5.791992 5.065334,-3.925156c0.908138,0.605688 1.546185,1.679764 1.517651,2.813978z" id="path4528" />
      </g>
      <line x1="1" y1="33" x2="42" y2="33" stroke="black" stroke-width="1" marker-end="url(#end)" />
      <rect x="52" y="24" width="27" height="18" rx="1" ry="1" fill="#ffffff" stroke="#000000" stroke-width="0.5" />
    </g>
  </g>
</svg>
