<?xml version="1.0" encoding="utf-8" standalone="no"?>
<svg xmlns:inkscape="http://www.inkscape.org/namespaces/inkscape" xmlns="http://www.w3.org/2000/svg" xmlns:svg="http://www.w3.org/2000/svg" xmlns:oryx="http://www.b3mn.org/oryx" xmlns:xlink="http://www.w3.org/1999/xlink" width="82" height="62" version="1.0">
  <g pointer-events="fill" oryx:minimumSize="80 60">
    <defs>
      <radialGradient id="background">
        <stop id="fill_el" />
      </radialGradient>
    </defs>
    <rect id="text_frame" oryx:anchors="bottom top right left" x="1" y="1" width="78" height="58" rx="10" ry="10" stroke="none" stroke-width="2" fill="none" />
    <rect id="bg_frame" oryx:resize="vertical horizontal" x="0" y="0" width="80" height="60" rx="4" ry="4" stroke="black" stroke-width="1" fill="url(#background) #ffffcc" />
    <text id="text2" oryx:anchors="top" oryx:align="center top" oryx:fittoelem="text_frame" font-family="Helvetica" font-size="10" x="40" y="40" fill="black">EXEC</text>
    <g transform="scale(0.70,0.70) translate(5,4)">
      <defs id="defs32">
        <marker id="arrow" viewBox="0 0 10 10" refX="1" refY="5" markerUnits="strokeWidth" orient="auto" markerWidth="8" markerHeight="14">
          <path d="M 0 0 L 10 5 L 0 10 z" />
        </marker>
        <marker id="end" refX="10" refY="5" markerUnits="userSpaceOnUse" markerWidth="10" markerHeight="10" orient="auto">
          <path id="arrowhead2" d="M 0 0 L 10 5 L 0 10 L 0 0" fill="black" stroke="black" />
        </marker>
      </defs>
<path inkscape:connector-curvature="0" id="path6" d="M 4.4761458,14.582083 8.9522917,12.090208 4.4761458,9.5983333 C 4.2454167,9.4598958 4.1069792,9.3676042 4.0146875,9.2753125 3.9223958,9.1830208 3.9223958,9.0445833 3.9223958,8.9061458 c 0,-0.1845833 0.092292,-0.3691666 0.2307292,-0.5076041 0.1384375,-0.1384375 0.3230208,-0.2307292 0.5076042,-0.2307292 0.1384375,0 0.276875,0.046146 0.55375,0.1845833 l 6.6449998,3.6916662 -6.6449998,3.691667 c -0.2307292,0.138438 -0.4153125,0.184583 -0.55375,0.184583 -0.1845834,1e-6 -0.3691667,-0.09229 -0.5076042,-0.230729 -0.1384375,-0.138437 -0.2307292,-0.323021 -0.2307292,-0.507604 0,-0.138437 0.046146,-0.276875 0.092292,-0.369166 0.092292,0 0.2307292,-0.09229 0.4614583,-0.23073 z M 11.075,19.473542 c 0,0.184583 0.09229,0.369166 0.230729,0.507604 0.138438,0.138437 0.369167,0.184583 0.692188,0.184583 l 7.567916,0 c 0.323021,0 0.55375,-0.04615 0.692188,-0.184583 0.138437,-0.138438 0.230729,-0.276875 0.230729,-0.507604 0,-0.184584 -0.09229,-0.369167 -0.230729,-0.507604 -0.138438,-0.138438 -0.369167,-0.184584 -0.692188,-0.184584 l -7.567916,0 c -0.323021,0 -0.55375,0.04615 -0.692188,0.184584 -0.138437,0.138437 -0.230729,0.32302 -0.230729,0.507604 z m 30.45625,-16.8432295 0,24.7803125 c 0,1.430521 -1.153646,2.538021 -2.538021,2.538021 l -36.4552082,0 C 1.1075,29.948646 0,28.795 0,27.410625 L 0,2.6303125 C 0,2.4457292 0,2.3072917 0.04614583,2.1688542 l 0,-2.1688542 41.43895817,0 0,2.1688542 c 0.04615,0.1384375 0.04615,0.3230208 0.04615,0.4614583 z M 8.9061458,3.6455208 C 9.2291667,3.9223958 9.7367708,3.87625 10.059792,3.5532292 10.336667,3.2302083 10.290521,2.7226042 9.9675,2.3995833 9.6444792,2.1227083 9.136875,2.1688542 8.8138542,2.491875 8.4908333,2.8148958 8.5369792,3.3225 8.9061458,3.6455208 Z m -3.1379166,0 C 6.09125,3.9223958 6.5988542,3.87625 6.921875,3.5532292 7.19875,3.2302083 7.1526042,2.7226042 6.8295833,2.3995833 6.5065625,2.1227083 5.9989583,2.1688542 5.6759375,2.491875 5.3529167,2.8148958 5.3990625,3.3225 5.7682292,3.6455208 Z m -2.9994792,0 C 3.0917708,3.9223958 3.599375,3.87625 3.9223958,3.5532292 4.1992708,3.1840625 4.153125,2.6764583 3.7839583,2.3995833 3.4609375,2.0765625 2.9533333,2.1227083 2.6764583,2.491875 2.3534375,2.8148958 2.3995833,3.3225 2.76875,3.6455208 Z m 37.331979,2.3072917 -38.6702082,0 0,21.4578125 c 0,0.599896 0.5076042,1.1075 1.1075,1.1075 l 36.4090622,0 c 0.599896,0 1.1075,-0.507604 1.1075,-1.1075 l 0,-21.4578125 z" />
    </g>
    <g transform="scale(0.8,0.8) translate(4,4)">
      <line x1="1" y1="33" x2="42" y2="33" stroke="black" stroke-width="1" marker-end="url(#end)" />
      <rect x="52" y="24" width="27" height="18" rx="1" ry="1" fill="#ffffff" stroke="#000000" stroke-width="0.5" />
		</g>
  </g>
</svg>
