<?xml version="1.0" encoding="utf-8" standalone="no"?>
<svg xmlns:inkscape="http://www.inkscape.org/namespaces/inkscape" xmlns="http://www.w3.org/2000/svg" xmlns:svg="http://www.w3.org/2000/svg" xmlns:oryx="http://www.b3mn.org/oryx" xmlns:xlink="http://www.w3.org/1999/xlink" width="82" height="62" version="1.0">
  <g pointer-events="fill" oryx:minimumSize="80 60">
    <defs>
      <radialGradient id="background">
        <stop id="fill_el" />
      </radialGradient>
    </defs>
    <rect id="text_frame" oryx:anchors="bottom top right left" x="1" y="1" width="78" height="58" rx="10" ry="10" stroke="none" stroke-width="2" fill="none" />
    <rect id="bg_frame" oryx:resize="vertical horizontal" x="0" y="0" width="80" height="60" rx="4" ry="4" stroke="black" stroke-width="1" fill="url(#background) #ffffcc" />
    <text id="text2" oryx:anchors="top" oryx:align="center top" oryx:fittoelem="text_frame" font-family="Helvetica" font-size="10" x="40" y="40" fill="black">FTP</text>
    <g transform="scale(0.8,0.8) translate(5,2)">
      <defs id="defs32">
        <marker id="arrow" viewBox="0 0 10 10" refX="1" refY="5" markerUnits="strokeWidth" orient="auto" markerWidth="8" markerHeight="14">
          <path d="M 0 0 L 10 5 L 0 10 z" />
        </marker>
        <marker id="end" refX="10" refY="5" markerUnits="userSpaceOnUse" markerWidth="10" markerHeight="10" orient="auto">
          <path id="arrowhead2" d="M 0 0 L 10 5 L 0 10 L 0 0" fill="black" stroke="black" />
        </marker>
      </defs>
      <g transform="scale(0.8,0.8) translate(0,0)">
        <path style="fill:#fff;fill-opacity:1;stroke:#000;stroke-width:3;" d="m 1.4455446,9.9100793 c 9.9114714,0 19.8229434,0 29.7344144,0 0,7.5391807 0,15.0783607 0,22.6175407 -9.911471,0 -19.822943,0 -29.7344144,0 0,-7.53918 0,-15.07836 0,-22.6175407 z" stroke-width="1.44" fill="white" stroke="#2e0e0e" id="rect3909" />
        <path style="fill:#fff;fill-opacity:1;stroke:#000;stroke-width:3;" d="m 1.9698081,9.7295235 c 0.00247,-1.1166921 0.00494,-2.2333843 0.00741,-3.3500764 5.8022773,0 11.6045549,0 17.4068319,0 0.772309,-0.729572 1.544617,-1.4591439 2.316926,-2.1887159 3.016985,0 6.033969,0 9.050954,0 0,1.6675937 0,3.3351873 0,5.002781" stroke-width="1.43" fill="white" stroke="#2f1818" id="path3911" />
        <g transform="translate(0,5)">
          <defs id="defs32">
            <marker id="end" orient="auto" refX="10" markerHeight="10" refY="5" markerWidth="10" markerUnits="userSpaceOnUse">
              <path d="M 0,0 10,5 0,10 0,0" stroke="#000000" id="arrowhead2" />
            </marker>
          </defs>
          <path style="fill:#fff;fill-opacity:1;stroke:#000;stroke-width:3;" d="m 4.4698687,14.527784 c 7.1072603,0 14.2145203,0 21.3217803,0" stroke-width="0.709" marker-end="url(#end)" stroke="#000000" id="line3037" />
        </g>
      </g>
      <line x1="1" y1="33" x2="42" y2="33" stroke="black" stroke-width="1" marker-end="url(#end)" />
      <rect x="52" y="24" width="27" height="18" rx="1" ry="1" fill="#ffffff" stroke="#000000" stroke-width="0.5" />
    </g>
  </g>
</svg>
