<?xml version="1.0" encoding="utf-8" standalone="no"?>
<svg xmlns:inkscape="http://www.inkscape.org/namespaces/inkscape" xmlns="http://www.w3.org/2000/svg" xmlns:svg="http://www.w3.org/2000/svg" xmlns:oryx="http://www.b3mn.org/oryx" xmlns:xlink="http://www.w3.org/1999/xlink" width="82" height="62" version="1.0">
  <g pointer-events="fill" oryx:minimumSize="80 60">
    <defs>
      <radialGradient id="background">
        <stop id="fill_el" />
      </radialGradient>
    </defs>
    <rect id="text_frame" oryx:anchors="bottom top right left" x="1" y="1" width="78" height="58" rx="10" ry="10" stroke="none" stroke-width="2" fill="none" />
    <rect id="bg_frame" oryx:resize="vertical horizontal" x="0" y="0" width="80" height="60" rx="4" ry="4" stroke="black" stroke-width="1" fill="url(#background) #ffffcc" />
    <text id="text2" oryx:anchors="top" oryx:align="center top" oryx:fittoelem="text_frame" font-family="Helvetica" font-size="10" x="40" y="40" fill="black">Marshal</text>
    <g transform="scale(1.0,1.0) translate(13,3)">
      <path d="m 0.8657051,28.044983 c 6.6031023,0 13.2062049,0 19.8093069,0 0,-8.912964 0,-17.825928 0,-26.7388914 -6.603102,0 -13.2062046,0 -19.8093069,0 0,8.9129634 0,17.8259274 0,26.7388914 z" fill="#ffffff" id="path10" />
      <path d="m 0.8657051,28.044983 c 6.6031023,0 13.2062049,0 19.8093069,0 0,-8.912964 0,-17.825928 0,-26.7388914 -6.603102,0 -13.2062046,0 -19.8093069,0 0,8.9129634 0,17.8259274 0,26.7388914 z" stroke-width="0.994" fill="none" stroke="#0f0f0f" id="path12" />
      <path d="m 30.641958,28.044983 c 6.603102,0 13.206204,0 19.809306,0 0,-8.912964 0,-17.825928 0,-26.7388914 -6.603102,0 -13.206204,0 -19.809306,0 0,8.9129634 0,17.8259274 0,26.7388914 z" fill="#ffffff" id="path14" />
      <path d="m 30.641958,28.044983 c 6.603102,0 13.206204,0 19.809306,0 0,-8.912964 0,-17.825928 0,-26.7388914 -6.603102,0 -13.206204,0 -19.809306,0 0,8.9129634 0,17.8259274 0,26.7388914 z" stroke-width="0.994" fill="none" stroke="#0f0f0f" id="path16" />
      <path d="m 10.708065,5.669341 c 10.76984,5.954407 21.539679,11.908814 32.309519,17.863221" stroke-width="1.584" fill="none" stroke="#0f0f0f" id="path18" />
      <path d="M 10.708065,23.532562 C 21.477905,17.578155 32.247744,11.623748 43.017584,5.669341" stroke-width="1.484" fill="none" stroke="#0f0f0f" id="path20" />
    </g>
  </g>
</svg>
