<?xml version="1.0" encoding="utf-8" standalone="no"?>
<svg xmlns:inkscape="http://www.inkscape.org/namespaces/inkscape" xmlns="http://www.w3.org/2000/svg" xmlns:svg="http://www.w3.org/2000/svg" xmlns:oryx="http://www.b3mn.org/oryx" xmlns:xlink="http://www.w3.org/1999/xlink" width="82" height="62" version="1.0">
  <g pointer-events="fill" oryx:minimumSize="80 60">
    <defs>
      <radialGradient id="background">
        <stop id="fill_el" />
      </radialGradient>
    </defs>
    <rect id="text_frame" oryx:anchors="bottom top right left" x="1" y="1" width="78" height="58" rx="10" ry="10" stroke="none" stroke-width="2" fill="none" />
    <rect id="bg_frame" oryx:resize="vertical horizontal" x="0" y="0" width="80" height="60" rx="4" ry="4" stroke="black" stroke-width="1" fill="url(#background) #ffffcc" />
    <text id="text2" oryx:anchors="top" oryx:align="center top" oryx:fittoelem="text_frame" font-family="Helvetica" font-size="10" x="40" y="40" fill="black">Splitter</text>
    <g transform="scale(1.1,1.1) translate(15,5)">
      <path d="m 4.2893262,18.022639 c -1.1786936,0.0035 -2.3573873,0.0071 -3.53608094,0.01065 -0.0071,-2.357405 -0.0141993,-4.714809 -0.021299,-7.072214 2.35738694,-0.0071 4.71477394,-0.0142 7.07216094,-0.0213 0.0071,2.357405 0.014199,4.714809 0.021299,7.072214 -1.1786933,0.0036 -2.3573867,0.0071 -3.53608,0.01065 z" fill="#ffffff" stroke="#000000" id="path2638" />
      <path d="m 24.190356,14.926696 c -2.892264,0.0087 -5.784529,0.01742 -8.676793,0.02613" stroke-width="0.743" fill="none" stroke="#000000" id="path2645" stroke-linejoin="round" />
      <path d="m 24.275216,11.245268 c 3.397794,1.176947 6.795589,2.353893 10.193383,3.53084 -3.416513,1.101146 -6.833027,2.202291 -10.24954,3.303437 0.01872,-2.278091 0.03744,-4.556191 0.05616,-6.834277 z" id="path2650" />
      <path d="m 43.21608,17.905406 c -1.178694,0.0036 -2.357387,0.0071 -3.536081,0.01065 -0.0071,-2.357405 -0.0142,-4.714809 -0.0213,-7.072214 2.357387,-0.0071 4.714774,-0.0142 7.072161,-0.0213 0.0071,2.357405 0.0142,4.714809 0.0213,7.072214 -1.178693,0.0036 -2.357387,0.0071 -3.53608,0.01065 z" fill="#ffffff" id="path2655" />
      <path d="m 43.21608,17.905406 c -1.178694,0.0036 -2.357387,0.0071 -3.536081,0.01065 -0.0071,-2.357405 -0.0142,-4.714809 -0.0213,-7.072214 2.357387,-0.0071 4.714774,-0.0142 7.072161,-0.0213 0.0071,2.357405 0.0142,4.714809 0.0213,7.072214 -1.178693,0.0036 -2.357387,0.0071 -3.53608,0.01065 z" stroke-width="0.937" fill="none" stroke="#000000" id="path2657" stroke-linejoin="round" />
      <path d="m 43.248028,28.5137 c -1.178694,0.0036 -2.357387,0.0071 -3.536081,0.01065 -0.0071,-2.357405 -0.0142,-4.714809 -0.0213,-7.072214 2.357387,-0.0071 4.714774,-0.0142 7.072161,-0.0213 0.0071,2.357405 0.0142,4.714809 0.0213,7.072214 -1.178693,0.0035 -2.357387,0.0071 -3.53608,0.01065 z" fill="#ffffff" id="path2662" />
      <path d="m 43.248028,28.5137 c -1.178694,0.0036 -2.357387,0.0071 -3.536081,0.01065 -0.0071,-2.357405 -0.0142,-4.714809 -0.0213,-7.072214 2.357387,-0.0071 4.714774,-0.0142 7.072161,-0.0213 0.0071,2.357405 0.0142,4.714809 0.0213,7.072214 -1.178693,0.0035 -2.357387,0.0071 -3.53608,0.01065 z" stroke-width="0.937" fill="none" stroke="#000000" id="path2664" stroke-linejoin="round" />
      <path d="m 43.184131,7.2971107 c -1.178693,0.00355 -2.357387,0.0071 -3.53608,0.010649 -0.0071,-2.357387 -0.0142,-4.714774 -0.0213,-7.072161 2.357387,-0.0071 4.714774,-0.0141992 7.072161,-0.0212988 0.0071,2.357387 0.0142,4.7147739 0.0213,7.0721609 -1.178694,0.00355 -2.357388,0.0071 -3.536081,0.01065 z" fill="#ffffff" id="path2669" />
      <path d="m 43.184131,7.2971107 c -1.178693,0.00355 -2.357387,0.0071 -3.53608,0.010649 -0.0071,-2.357387 -0.0142,-4.714774 -0.0213,-7.072161 2.357387,-0.0071 4.714774,-0.0141992 7.072161,-0.0212988 0.0071,2.357387 0.0142,4.7147739 0.0213,7.0721609 -1.178694,0.00355 -2.357388,0.0071 -3.536081,0.01065 z" stroke-width="0.937" fill="none" stroke="#000000" id="path2671" stroke-linejoin="round" />
    </g>
  </g>
</svg>
