<?xml version="1.0" encoding="utf-8" standalone="no"?>
<svg xmlns:inkscape="http://www.inkscape.org/namespaces/inkscape" xmlns="http://www.w3.org/2000/svg" xmlns:svg="http://www.w3.org/2000/svg" xmlns:oryx="http://www.b3mn.org/oryx" xmlns:xlink="http://www.w3.org/1999/xlink" width="82" height="62" version="1.0">
  <g pointer-events="fill" oryx:minimumSize="80 60">
    <defs>
      <radialGradient id="background">
        <stop id="fill_el" />
      </radialGradient>
    </defs>
    <rect id="text_frame" oryx:anchors="bottom top right left" x="1" y="1" width="78" height="58" rx="10" ry="10" stroke="none" stroke-width="2" fill="none" />
    <rect id="bg_frame" oryx:resize="vertical horizontal" x="0" y="0" width="80" height="60" rx="4" ry="4" stroke="black" stroke-width="1" fill="url(#background) #ffffcc" />
    <text id="text2" oryx:anchors="top" oryx:align="center top" oryx:fittoelem="text_frame" font-family="Helvetica" font-size="10" x="40" y="40" fill="black">Recipientlist</text>
    <g transform="scale(1,1) translate(8,3)">
      <path d="m 0.59235768,18.652541 c 3.67322812,0 7.34645622,0 11.01968432,0" stroke-width="0.886" fill="none" stroke="#000000" id="path5396" stroke-linejoin="round" />
      <path d="m 14.623853,15.605297 c 2.61207,-0.142633 4.096205,3.459382 2.161417,5.208661 -1.749279,1.934788 -5.351294,0.450653 -5.208661,-2.161417 -0.02756,-1.630281 1.416225,-3.074657 3.047244,-3.047244 z" id="path5401" />
      <path d="m 50.978183,4.5856125 c 3.826772,0 7.653543,0 11.480315,0" stroke-width="0.886" fill="none" stroke="#000000" id="path5406" stroke-linejoin="round" />
      <path d="M 48.391569,7.6328565 C 45.7795,7.7754891 44.295364,4.1734742 46.230152,2.4241952 c 1.749279,-1.9347882 5.351294,-0.450652 5.208661,2.1614173 0.02756,1.6302813 -1.416225,3.0746573 -3.047244,3.047244 z" id="path5411" />
      <path d="m 50.978183,18.652541 c 3.826772,0 7.653543,0 11.480315,0" stroke-width="0.886" fill="none" stroke="#000000" id="path5416" stroke-linejoin="round" />
      <path d="m 48.391569,21.699785 c -2.61207,0.142633 -4.096205,-3.459382 -2.161417,-5.208661 1.749279,-1.934788 5.351294,-0.450652 5.208661,2.161417 0.02756,1.630281 -1.416225,3.074657 -3.047244,3.047244 z" id="path5421" />
      <path d="m 50.978183,32.71947 c 3.826772,0 7.653543,0 11.480315,0" stroke-width="0.886" fill="none" stroke="#000000" id="path5426" stroke-linejoin="round" />
      <path d="m 48.391569,35.766714 c -2.61207,0.142633 -4.096205,-3.459382 -2.161417,-5.208661 1.749279,-1.934788 5.351294,-0.450652 5.208661,2.161417 0.02756,1.630281 -1.416225,3.074657 -3.047244,3.047244 z" id="path5431" />
      <path d="M 14.623853,18.652541 C 25.879758,13.963565 37.135664,9.2745887 48.391569,4.5856125" stroke-width="0.886" fill="none" stroke="#000000" id="path5436" stroke-linejoin="round" />
      <path d="M 48.391569,32.754903 C 37.135664,28.054116 25.879758,23.353328 14.623853,18.652541 c 11.255905,0 22.511811,0 33.767716,0" stroke-width="0.886" fill="none" stroke="#000000" id="path5441" stroke-linejoin="round" />
    </g>
  </g>
</svg>
