<?xml version="1.0" encoding="utf-8" standalone="no"?>
<svg xmlns:inkscape="http://www.inkscape.org/namespaces/inkscape" xmlns="http://www.w3.org/2000/svg" xmlns:svg="http://www.w3.org/2000/svg" xmlns:oryx="http://www.b3mn.org/oryx" xmlns:xlink="http://www.w3.org/1999/xlink" width="82" height="62" version="1.0">
  <g pointer-events="fill" oryx:minimumSize="80 60">
    <defs>
      <radialGradient id="background">
        <stop id="fill_el" />
      </radialGradient>
    </defs>
    <rect id="text_frame" oryx:anchors="bottom top right left" x="1" y="1" width="78" height="58" rx="10" ry="10" stroke="none" stroke-width="2" fill="none" />
    <rect id="bg_frame" oryx:resize="vertical horizontal" x="0" y="0" width="80" height="60" rx="4" ry="4" stroke="black" stroke-width="1" fill="url(#background) #ffffcc" />
    <text id="text2" oryx:anchors="top" oryx:align="center top" oryx:fittoelem="text_frame" font-family="Helvetica" font-size="10" x="40" y="40" fill="black">Rollback</text>
    <g transform="scale(1,1) translate(14,3)">
      <path d="M 24.869131,31.600853 C 16.851702,31.61528 8.2423657,29.202753 2.9079542,22.876769 -0.39503817,18.92062 -0.46177253,12.597483 3.0740236,8.7573412 7.5104602,3.2841857 14.685301,0.98209319 21.471107,0.29958557 30.0521,-0.46569586 39.376964,1.5279508 45.743009,7.6404833 c 3.335448,3.3506137 4.802783,8.8761887 2.342767,13.1408277 -2.85661,5.455915 -8.825702,8.364096 -14.56221,9.805181 -2.827767,0.695295 -5.742192,1.041561 -8.654435,1.014361 z" fill="#eeeeee" id="path1318" />
      <path d="M 24.869131,31.600853 C 16.851702,31.61528 8.2423657,29.202753 2.9079542,22.876769 -0.39503817,18.92062 -0.46177253,12.597483 3.0740236,8.7573412 7.5104602,3.2841857 14.685301,0.98209319 21.471107,0.29958557 30.0521,-0.46569586 39.376964,1.5279508 45.743009,7.6404833 c 3.335448,3.3506137 4.802783,8.8761887 2.342767,13.1408277 -2.85661,5.455915 -8.825702,8.364096 -14.56221,9.805181 -2.827767,0.695295 -5.742192,1.041561 -8.654435,1.014361 z" stroke-width="0.235" fill="none" stroke="#000000" id="path1320" stroke-linejoin="round" />
      <path d="m 32.396779,8.6244363 c 2.327022,0 4.654044,0 6.981066,0 0,4.6540437 0,9.3080867 0,13.9621307 -4.654044,0 -9.308087,0 -13.962131,0 0,-4.654044 0,-9.308087 0,-13.9621307 2.327022,0 4.654043,0 6.981065,0 z" fill="#ffffff" id="path1325" />
      <path d="m 32.396779,8.6244363 c 2.327022,0 4.654044,0 6.981066,0 0,4.6540437 0,9.3080867 0,13.9621307 -4.654044,0 -9.308087,0 -13.962131,0 0,-4.654044 0,-9.308087 0,-13.9621307 2.327022,0 4.654043,0 6.981065,0 z" stroke-width="0.235" fill="none" stroke="#000000" id="path1327" stroke-linejoin="round" />
      <path d="M 24.31133,16.06528 C 19.114228,15.985738 13.917127,15.906195 8.7200254,15.826653" stroke-width="0.671" fill="none" stroke="#808080" id="path1332" stroke-linejoin="round" />
      <path d="m 1.2198743,16.00311 c 2.3516396,-1.143254 4.7032793,-2.286508 7.0549189,-3.429762 -0.029937,2.336608 -0.059873,4.673215 -0.08981,7.009823 C 5.8632801,18.389818 3.5415782,17.19646 1.2198743,16.00311 z" fill="#808080" id="path1337" />
      <path d="m 1.2198743,16.00311 c 2.3516396,-1.143254 4.7032793,-2.286508 7.0549189,-3.429762 -0.029937,2.336608 -0.059873,4.673215 -0.08981,7.009823 C 5.8632801,18.389818 3.5415782,17.19646 1.2198743,16.00311 z" stroke-width="0.733" fill="none" stroke="#808080" id="path1339" stroke-linejoin="round" />
    </g>
  </g>
</svg>
