<?xml version="1.0" encoding="utf-8" standalone="no"?>
<svg xmlns:inkscape="http://www.inkscape.org/namespaces/inkscape" xmlns="http://www.w3.org/2000/svg" xmlns:svg="http://www.w3.org/2000/svg" xmlns:oryx="http://www.b3mn.org/oryx" xmlns:xlink="http://www.w3.org/1999/xlink" width="82" height="62" version="1.0">
  <g pointer-events="fill" oryx:minimumSize="80 60">
    <defs>
      <radialGradient id="background">
        <stop id="fill_el" />
      </radialGradient>
    </defs>
    <rect id="text_frame" oryx:anchors="bottom top right left" x="1" y="1" width="78" height="58" rx="10" ry="10" stroke="none" stroke-width="2" fill="none" />
    <rect id="bg_frame" oryx:resize="vertical horizontal" x="0" y="0" width="80" height="60" rx="4" ry="4" stroke="black" stroke-width="1" fill="url(#background) #ffffcc" />
    <text id="text2" oryx:anchors="top" oryx:align="center top" oryx:fittoelem="text_frame" font-family="Helvetica" font-size="10" x="40" y="40" fill="black">XDocReport</text>
    <g transform="scale(0.8,0.8) translate(5,2)">
      <defs id="defs32">
        <marker id="arrow" viewBox="0 0 10 10" refX="1" refY="5" markerUnits="strokeWidth" orient="auto" markerWidth="8" markerHeight="14">
          <path d="M 0 0 L 10 5 L 0 10 z" />
        </marker>
        <marker id="end" refX="10" refY="5" markerUnits="userSpaceOnUse" markerWidth="10" markerHeight="10" orient="auto">
          <path id="arrowhead2" d="M 0 0 L 10 5 L 0 10 L 0 0" fill="black" stroke="black" />
        </marker>
      </defs>
      <g transform="scale(0.85,0.85) translate(0,2)">
        <path style="fill:#fff;fill-opacity:1;stroke:#000;stroke-width:2;" d="M 3.9333405,0.78857209 C 2.4131879,0.59420997 1.5670049,2.0888486 1.9028219,3.3483433 c 0.011625,8.2432777 -0.023249,16.4883017 0.017437,24.7304837 0.5636424,1.358129 2.4561929,1.112336 3.7057565,1.119454 10.3733599,-0.0077 20.7473119,0.01526 31.1203059,-0.01144 1.472451,0.0099 1.947663,-1.493056 1.706851,-2.64205 0,-3.993978 0,-7.987956 0,-11.981937 -0.921509,0.405371 -1.609903,1.058114 -1.353728,2.073946 0,3.743262 0,7.48652 0,11.229781 -0.850564,0.877394 -2.360476,0.298382 -3.528146,0.443907 -9.879344,0 -19.758689,0 -29.6380338,0 -1.2077626,-0.290994 -0.5012807,-1.74815 -0.6768613,-2.63831 0,-7.850625 0,-15.7012577 0,-23.5518898 0.8505675,-0.8773832 2.3604797,-0.2983784 3.5281488,-0.4438997 9.8793453,0 19.7586893,0 29.6380343,0 1.207761,0.2909939 0.501277,1.7481501 0.676858,2.6383101 0,1.1932529 0,2.3865023 0,3.5797518 C 37.8996,8.6230532 38.803847,9.0098966 38.447443,7.5687261 38.405389,5.6040776 38.579741,3.606237 38.339045,1.6627965 37.442308,0.45161078 35.665269,0.85255915 34.317907,0.78858765 c -10.128193,0 -20.256382,0 -30.3845738,0 z M 9.1102412,7.0482536 c 0.1362357,0.9141008 1.7923218,0.2715313 2.6147508,0.4438997 6.507149,0 13.014295,0 19.521445,0 -0.136231,-0.9141007 -1.792322,-0.2715312 -2.614751,-0.4438997 -6.507149,0 -13.014295,0 -19.5214448,0 z M 35.534573,8.1267994 c -1.256963,0.8043758 -3.710003,1.6959509 -3.958004,2.9520076 1.57105,1.12643 3.209373,2.1903 4.865785,3.207322 C 38.02611,13.84595 39.726798,12.60475 40.757295,11.533032 39.57641,10.426801 38.006697,9.6757098 36.67406,8.7053177 36.300096,8.5270909 35.967501,8.1466932 35.534573,8.1267994 Z m -5.346124,3.5061566 c -1.679928,0.768694 -3.121121,1.953196 -4.69207,2.91419 -2.340249,1.534806 -4.680502,3.069614 -7.020755,4.60442 0.228537,1.400054 2.642973,1.941768 3.725235,3.003966 1.178828,1.355594 2.536391,0.210351 3.633993,-0.571801 3.153935,-2.068443 6.307873,-4.136888 9.461808,-6.20533 -0.222522,-1.402926 -2.642883,-1.943869 -3.724487,-3.006936 -0.454161,-0.225902 -0.865269,-0.679651 -1.383724,-0.738509 z M 9.1099034,12.198245 c 0.1362322,0.914101 1.7923216,0.271532 2.6147506,0.4439 4.920393,0 9.840781,0 14.761173,0 1.34447,-0.716693 -1.099757,-0.370026 -1.681017,-0.4439 -5.231635,0 -10.463272,0 -15.6949066,0 z m 0,5.146484 c 0.1362322,0.914101 1.7923216,0.271538 2.6147506,0.443902 2.304752,0 4.609503,0 6.914254,0 1.34447,-0.716696 -1.099753,-0.370029 -1.681018,-0.443902 -2.615996,0 -5.23199,0 -7.8479866,0 z m 7.9584376,2.854175 c -1.047784,1.34692 -1.668764,3.122432 -2.508615,4.654435 -0.464947,1.439651 2.39245,-0.14041 3.328008,-0.05529 1.471235,-0.314462 2.943527,-0.626333 4.402801,-0.98908 -0.864714,-1.259769 -2.966044,-2.040976 -4.29833,-3.111609 -0.309364,-0.127981 -0.580451,-0.480582 -0.923864,-0.498456 z m -7.9584376,2.295862 c 0.1362322,0.9141 1.7923216,0.271538 2.6147506,0.443902 0.780044,0 1.560087,0 2.34013,0 0.401648,-0.886248 -1.58764,-0.285775 -2.274393,-0.443902 -0.893495,0 -1.786992,0 -2.6804876,0 z m 17.2490056,0 c -1.34447,0.716696 1.099754,0.370029 1.681018,0.443902 1.068341,0 2.136679,0 3.20502,0 -0.136231,-0.914107 -1.792322,-0.271534 -2.614751,-0.443902 -0.757095,0 -1.51419,0 -2.271287,0 z" id="rect2992-9-9" inkscape:connector-curvature="0" />
      </g>
      <line x1="1" y1="33" x2="42" y2="33" stroke="black" stroke-width="1" marker-end="url(#end)" />
      <rect x="52" y="24" width="27" height="18" rx="1" ry="1" fill="#ffffff" stroke="#000000" stroke-width="0.5" />
    </g>
  </g>
</svg>
