<?xml version="1.0" encoding="utf-8" standalone="no"?>
<svg xmlns:inkscape="http://www.inkscape.org/namespaces/inkscape" xmlns="http://www.w3.org/2000/svg" xmlns:svg="http://www.w3.org/2000/svg" xmlns:oryx="http://www.b3mn.org/oryx" xmlns:xlink="http://www.w3.org/1999/xlink" width="82" height="62" version="1.0">
  <g pointer-events="fill" oryx:minimumSize="80 60">
    <defs>
      <radialGradient id="background">
        <stop id="fill_el" />
      </radialGradient>
    </defs>
    <rect id="text_frame" oryx:anchors="bottom top right left" x="1" y="1" width="78" height="58" rx="10" ry="10" stroke="none" stroke-width="2" fill="none" />
    <rect id="bg_frame" oryx:resize="vertical horizontal" x="0" y="0" width="80" height="60" rx="4" ry="4" stroke="black" stroke-width="1" fill="url(#background) #ffffcc" />
    <text id="text2" oryx:anchors="top" oryx:align="center top" oryx:fittoelem="text_frame" font-family="Helvetica" font-size="10" x="40" y="40" fill="black">Zeebe</text>
    <g transform="scale(0.8,0.8) translate(5,2)">
      <defs id="defs32">
        <marker id="arrow" viewBox="0 0 10 10" refX="1" refY="5" markerUnits="strokeWidth" orient="auto" markerWidth="8" markerHeight="14">
          <path d="M 0 0 L 10 5 L 0 10 z" />
        </marker>
        <marker id="end" refX="10" refY="5" markerUnits="userSpaceOnUse" markerWidth="10" markerHeight="10" orient="auto">
          <path id="arrowhead2" d="M 0 0 L 10 5 L 0 10 L 0 0" fill="black" stroke="black" />
        </marker>
      </defs>
      <g transform="scale(1.3,1.3) translate(0,0)">
        <path style="fill:#c9c9c9;fill-opacity:1;stroke:#21221;stroke-width:2;" d="M19.43 12.98c.04-.32.07-.64.07-.98s-.03-.66-.07-.98l2.11-1.65c.19-.15.24-.42.12-.64l-2-3.46c-.12-.22-.39-.3-.61-.22l-2.49 1c-.52-.4-1.08-.73-1.69-.98l-.38-2.65C14.46 2.18 14.25 2 14 2h-4c-.25 0-.46.18-.49.42l-.38 2.65c-.61.25-1.17.59-1.69.98l-2.49-1c-.23-.09-.49 0-.61.22l-2 3.46c-.13.22-.07.49.12.64l2.11 1.65c-.04.32-.07.65-.07.98s.03.66.07.98l-2.11 1.65c-.19.15-.24.42-.12.64l2 3.46c.12.22.39.3.61.22l2.49-1c.52.4 1.08.73 1.69.98l.38 2.65c.03.24.24.42.49.42h4c.25 0 .46-.18.49-.42l.38-2.65c.61-.25 1.17-.59 1.69-.98l2.49 1c.23.09.49 0 .61-.22l2-3.46c.12-.22.07-.49-.12-.64l-2.11-1.65zM12 15.5c-1.93 0-3.5-1.57-3.5-3.5s1.57-3.5 3.5-3.5 3.5 1.57 3.5 3.5-1.57 3.5-3.5 3.5z" />
      </g>
      <line x1="1" y1="33" x2="42" y2="33" stroke="black" stroke-width="1" marker-end="url(#end)" />
      <rect x="52" y="24" width="27" height="18" rx="1" ry="1" fill="#ffffff" stroke="#000000" stroke-width="0.5" />
    </g>
  </g>
</svg>
