<?xml version="1.0" encoding="UTF-8" standalone="no"?>
<!-- Created with Inkscape (http://www.inkscape.org/) -->

<svg
   xmlns:dc="http://purl.org/dc/elements/1.1/"
   xmlns:cc="http://creativecommons.org/ns#"
   xmlns:rdf="http://www.w3.org/1999/02/22-rdf-syntax-ns#"
   xmlns:svg="http://www.w3.org/2000/svg"
   xmlns="http://www.w3.org/2000/svg"
   xmlns:sodipodi="http://sodipodi.sourceforge.net/DTD/sodipodi-0.dtd"
   xmlns:inkscape="http://www.inkscape.org/namespaces/inkscape"
   id="svg2"
   version="1.1"
   inkscape:version="0.91 r13725"
   xml:space="preserve"
   width="89.76609"
   height="87.233772"
   viewBox="0 0 89.766092 87.233772"
   sodipodi:docname="service.svg"
   inkscape:export-filename="camel.png"
   inkscape:export-xdpi="16.040001"
   inkscape:export-ydpi="16.040001"><metadata
     id="metadata8"><rdf:RDF><cc:Work
         rdf:about=""><dc:format>image/svg+xml</dc:format><dc:type
           rdf:resource="http://purl.org/dc/dcmitype/StillImage" /><dc:title></dc:title></cc:Work></rdf:RDF></metadata><defs
     id="defs6" /><sodipodi:namedview
     pagecolor="#ffffff"
     bordercolor="#666666"
     borderopacity="1"
     objecttolerance="10"
     gridtolerance="10"
     guidetolerance="10"
     inkscape:pageopacity="0"
     inkscape:pageshadow="2"
     inkscape:window-width="2812"
     inkscape:window-height="1734"
     id="namedview4"
     showgrid="false"
     fit-margin-top="0"
     fit-margin-left="0"
     fit-margin-right="0"
     fit-margin-bottom="0"
     inkscape:zoom="6.1548052"
     inkscape:cx="-19.902031"
     inkscape:cy="22.38347"
     inkscape:window-x="0"
     inkscape:window-y="0"
     inkscape:window-maximized="0"
     inkscape:current-layer="g10" /><g
     id="g10"
     inkscape:groupmode="layer"
     inkscape:label="ink_ext_XXXXXX"
     transform="matrix(1.25,0,0,-1.25,-316.12096,302.72422)"><path
       inkscape:connector-curvature="0"
       id="path88"
       style="fill:#ffffff;fill-opacity:1;stroke:#455a64;stroke-width:2.99679995;stroke-linecap:round;stroke-linejoin:round;stroke-miterlimit:10;stroke-dasharray:none;stroke-opacity:1"
       d="m 320.45882,173.89076 -63.31076,0 c -1.52047,0 -2.75289,1.75665 -2.75289,3.92859 l 0,58.93287 c 0,2.17194 1.23242,3.92876 2.75289,3.92876 l 63.31076,0 c 1.51813,0 2.75242,-1.75682 2.75242,-3.92876 l 0,-58.93287 c 0,-2.17194 -1.23429,-3.92859 -2.75242,-3.92859 z" /><g
       id="g4574"
       transform="matrix(1.903925,0,0,1.903925,-272.11701,-191.57171)"><path
         d="m 294.00451,209.8553 c 0,-3.41078 -3.0269,-6.17336 -6.76507,-6.17336 -3.73499,0 -6.76402,2.76258 -6.76402,6.17336 0,3.4098 3.02903,6.17529 6.76402,6.17529 3.73817,0 6.76507,-2.76549 6.76507,-6.17529 z"
         style="fill:none;stroke:#455a64;stroke-width:3.27322936;stroke-linecap:round;stroke-linejoin:round;stroke-miterlimit:4;stroke-dasharray:none;stroke-opacity:1"
         id="path98"
         inkscape:connector-curvature="0" /><path
         d="m 308.18002,200.73888 c 0,-2.43267 -2.16465,-4.40635 -4.8322,-4.40635 -2.67073,0 -4.83326,1.97368 -4.83326,4.40635 0,2.43848 2.16253,4.41314 4.83326,4.41314 2.66755,0 4.8322,-1.97466 4.8322,-4.41314 z"
         style="fill:none;stroke:#455a64;stroke-width:2.83119988;stroke-linecap:round;stroke-linejoin:round;stroke-miterlimit:4;stroke-dasharray:none;stroke-opacity:1"
         id="path100"
         inkscape:connector-curvature="0" /><path
         d="m 307.21358,217.4997 c 0,-1.94652 -1.73194,-3.52819 -3.86576,-3.52819 -2.13701,0 -3.86894,1.58167 -3.86894,3.52819 0,1.94846 1.73193,3.52819 3.86894,3.52819 2.13382,0 3.86576,-1.57973 3.86576,-3.52819 z"
         style="fill:none;stroke:#455a64;stroke-width:3.42764091;stroke-linecap:round;stroke-linejoin:round;stroke-miterlimit:4;stroke-dasharray:none;stroke-opacity:1"
         id="path102"
         inkscape:connector-curvature="0" /><path
         d="m 293.39956,213.09141 6.03998,2.93724"
         style="fill:none;stroke:#455a64;stroke-width:2.03141737;stroke-linecap:round;stroke-linejoin:round;stroke-miterlimit:4;stroke-dasharray:none;stroke-opacity:1"
         id="path104"
         inkscape:connector-curvature="0" /><path
         d="m 292.55645,205.73811 5.9613,-3.52819"
         style="fill:none;stroke:#455a64;stroke-width:2.03141737;stroke-linecap:round;stroke-linejoin:round;stroke-miterlimit:4;stroke-dasharray:none;stroke-opacity:1"
         id="path106"
         inkscape:connector-curvature="0" /></g></g></svg>